<svg xmlns="http://www.w3.org/2000/svg" viewBox="0 0 275.63 80.89"><defs><style>.cls-1{fill:#224089;}.cls-2{fill:#1d1e4e;}</style></defs><title>blue</title><g id="Calque_2" data-name="Calque 2"><g id="Layer_1" data-name="Layer 1"><path class="cls-1" d="M269.3,74.56V52.44s-26.22,4.45-26.22-25.33c0-14.34-10.73-21.47-22.05-15.21a6.21,6.21,0,0,1-3,.77H192V6.33A6.34,6.34,0,0,0,185.63,0H90a6.33,6.33,0,0,0-6.33,6.33v6.34H57.61a6.21,6.21,0,0,1-3-.77c-11.32-6.26-22,.87-22,15.21,0,29.78-26.23,25.33-26.23,25.33V74.56A6.33,6.33,0,0,1,0,80.89H275.63A6.34,6.34,0,0,1,269.3,74.56Z"/><path class="cls-2" d="M216.31,77.11V63.91s-15.66,2.65-15.66-15.13c0-8.56-6.4-12.81-13.16-9.08a3.62,3.62,0,0,1-1.79.46H170.14V36.38a3.78,3.78,0,0,0-3.78-3.78H109.27a3.78,3.78,0,0,0-3.78,3.78v3.78H89.94a3.65,3.65,0,0,1-1.8-.46C81.38,36,75,40.22,75,48.78c0,17.78-15.66,15.13-15.66,15.13v13.2a3.78,3.78,0,0,1-3.78,3.78H220.09A3.78,3.78,0,0,1,216.31,77.11Z"/></g></g></svg>