<?xml version="1.0" encoding="iso-8859-1"?>
<!-- Generator: Adobe Illustrator 19.1.0, SVG Export Plug-In . SVG Version: 6.00 Build 0)  -->
<svg version="1.1" id="Calque_1" xmlns="http://www.w3.org/2000/svg" xmlns:xlink="http://www.w3.org/1999/xlink" x="0px" y="0px"
	 viewBox="0 0 2834.65 2834.65" style="enable-background:new 0 0 2834.65 2834.65;" xml:space="preserve">
<g>
	<path style="fill:#240D1C;" d="M2278.742,1293.111L1617.782,82.02H1186.39H1006.15H533.201l44.784,80.198l698.827,1251.432
		l-35.928,59.136l-0.006-0.006L463.157,2752.988l620.706-1.205h480.466l474.128-779.1l0.01,0.019l49.04-80.556l45.985-75.508
		l-0.01-0.017l138.199-227.018C2326.633,1499.352,2329.336,1385.742,2278.742,1293.111z"/>
	<g>
		<g>
			<path style="fill:#EDAB19;" d="M1738.416,1892.662l-73.77-144.399l-8.788-16.636l-4.081-8.162l-52.422,73.455l-1.885,2.51v0.314
				l-13.184,18.836v10.045l2.512,24.17l9.731-11.929l4.709-14.753l1.883-16.638l0.627-5.336l7.533-9.731l5.024-5.022l2.198-5.024
				l7.533,14.755v2.51l2.198,2.512v21.974l14.753-7.534h2.512l7.534-2.198l11.929-2.512h12.243l5.022,2.512l-12.241,8.474
				l-5.024,3.769l-7.219,2.51h-4.709l-5.022,4.709l-7.533,5.022v2.512l-2.198,2.198l4.708,12.243l-5.336,10.045l-1.255,3.138
				l-0.628,1.569h-7.533l-4.709-7.533h-0.314v0.314l-14.439,12.243h-2.512v2.196l-9.731,5.024l-14.755,5.022h-16.95l-0.941-0.626
				h-0.314l-3.767-1.883l-9.731,5.022l-5.024,5.022l-7.533,2.198l-9.417,7.221l-1.569,0.314l-4.395,1.883h-0.314l-78.477,131.84
				l-24.172,40.81l-43.005,71.885l-163.859,258.974l-7.221,12.869l-6.591,12.557l-50.853,92.917l-14.126,26.367l-35.158,64.351
				l-12.243,22.288l-7.848,14.753l-6.593,11.929h454.855l31.703-59.641c-10.043-10.36-19.774-19.148-26.367-22.917
				c-22.915-12.555-48.97-23.229-62.782-45.515c39.867,2.824,80.046,6.591,119.599,11.3l86.325-161.664l11.3-21.972L1799,2171.413
				l23.543-41.122l19.462-34.531L1738.416,1892.662z M1650.208,1752.658l-9.731,9.731l-7.221,5.024l3.14-9.731l5.022-6.593
				l1.569-0.628v-1.569l0.943-1.255h6.279V1752.658z M1401.277,2431.014l-4.079,12.557l2.196,6.593l-4.393,4.393l-6.279-6.277
				l-6.279-10.988l-4.395-12.555l2.198-6.279l6.279-2.198l8.476-2.198l8.474,4.395l4.081,6.279L1401.277,2431.014z
				 M1473.792,2401.194h-8.476l-4.395-8.476l4.395-4.395h6.279l4.393,2.198l4.081,6.593L1473.792,2401.194z M1539.712,2450.164
				l-10.674,10.672l2.198,8.791l-8.474,4.081l-4.395-6.593l4.395-6.279v-4.393l2.196-10.674l8.476-4.081h4.081l2.198,1.884V2450.164
				z M1548.188,2380.161l-8.476-4.393l-12.871-1.883l-10.672,1.883l10.672-16.952l19.15,2.198l2.198,2.198l4.393,8.476
				L1548.188,2380.161z M1554.464,2237.647l-1.883,1.883l-4.393,2.198h-6.279v-8.476l4.081-8.474l8.474-2.198l4.395,8.789
				L1554.464,2237.647z"/>
		</g>
		<g>
			<path style="fill:#65BD9C;" d="M1650.835,1719.07l-5.336-3.138l-9.731,2.512l-2.512,9.731v9.731l-2.51,2.51l-2.512,5.024h-11.929
				v-7.533l-2.826-7.221v-14.753l10.045-12.243l7.848-12.243l0.943-1.255l-6.279-10.986l-12.557,5.022l-2.198-12.555l-5.022-16.952
				l2.826-1.883l-9.731-16.324l-0.314,0.943v7.219l-5.024,12.557l7.221,14.44v15.067l-4.709,4.708h-2.512l-1.883-3.138
				l-7.848-14.126l2.512-21.974l5.022-9.417l-5.022-7.534l-5.024-2.512v-7.534l-2.51-2.198l5.022-2.51h5.024l-14.126-21.974h-5.65
				l-9.731-2.512l-7.221-2.512l-2.51,5.024v2.198l-2.512-2.198v-2.512l-2.512-5.022l9.731-11.929l3.767-7.534l-93.23-149.106
				l-49.912-79.734l-47.401,75.025l-84.754,135.294l-24.486,38.924l-75.337,113.635l-3.14,4.395l-92.603,140.004l-75.023,145.652
				c21.031,31.705,42.063,64.665,72.825,87.896c-23.855-18.207-58.701-39.239-84.441-65.294l-9.103,17.579l-21.66,41.436
				l-3.767,7.533l-21.346,40.808l-13.184,21.346L789.47,2372.941l-2.824,4.395l-6.593,10.36l-76.594,128.702l-9.731,16.636
				l-76.28,128.704l-5.336,8.788h383.909l-14.126-9.103l2.198-2.198v-2.198l-14.753-1.883l-2.198-16.95l-8.476-4.395l-10.672-1.883
				l-10.674-4.709l-12.557,12.871h-10.672l-19.148,19.148l-12.871-8.476l12.871-10.672l19.148-19.148h10.672l-6.591-6.279
				l-2.198-8.79l-4.395-1.883h-2.198l4.709-10.672l6.279-8.476l1.883-29.822l17.265-25.427l4.081-2.198l4.395-4.081l-2.198-6.591
				l2.198-6.279l8.474,2.198l2.198,8.162l8.476,2.51l2.198,6.279l4.081,4.395l-4.081,4.081l-8.79,2.198l-6.279,8.162v2.198
				l2.198,4.393l6.279,4.395l4.395,10.674l-4.395,1.884l-4.081,4.393l-8.788-4.393l-1.883-8.476l-6.279,2.198l-4.395,2.198
				l-6.279,8.474l-2.198,10.674l2.198,6.279v4.395l10.674,16.95l16.95,6.279h8.476l10.672,2.198l8.476-2.198l4.081,6.277
				l8.476,10.988l8.474,8.162v-1.883l2.198-4.395v-14.755l-8.476-17.265l10.674-12.555l19.148-14.755l16.952,8.476l2.198,2.198
				h12.555l4.709,12.555v14.755l-2.512,13.184l8.79,20.719l4.707,5.962l-6.593,11.929h54.622l0.626-0.941l3.767-7.533
				l130.273-252.384l127.761-264.31l38.61-66.548l22.602-39.239l76.594-132.468l-4.395,1.883h-0.314l-23.229,7.848l-9.731,4.707
				v9.731l-5.024,10.045l-2.196,2.198h-10.045l5.022-9.417l2.512-2.826v-2.512l4.707-4.708l-9.731,2.512l-5.022,2.196l-7.219,2.512
				l-14.755-9.731l2.512-9.731v-10.045l-7.219-2.198l-7.535-5.022l-2.198-4.709v-14.753l2.198-2.512v-2.198l5.024-7.533l2.512-5.022
				l-2.512-9.731l-12.557,2.51v5.024l-2.198,4.707h-17.265l-2.198-7.219l-5.022-5.022l5.022-4.709l2.198-5.336v-2.198l12.243-7.219
				h17.265l19.462-10.045l5.024,22.286l-12.243,24.172l-2.512,7.533v7.219h2.512l2.512,2.512l7.219,2.512l17.265,14.753v9.731
				l5.024-2.51l7.219-2.198v-5.024l2.198-5.022l10.045-14.755l2.196-7.219l7.535-12.243l7.219-9.731v-2.51l14.44-14.44l7.534,7.219
				l-4.709,7.221l2.198,5.022l5.022,2.512h7.535l16.95-17.579h2.512v-2.198l-16.952-24.486h-0.312l-14.755-7.219h-4.709
				l-4.708,7.219l-2.512,7.221h-2.512l-14.124,5.022h-0.314l-19.776-9.731l-6.593-22.288l-0.627-2.196l2.196-2.198h2.512
				l-4.708-7.535l-5.024-5.022l2.512-14.441h2.512l-5.024-5.336l-2.512-4.395l-14.753-19.776l-2.512-2.51h-5.022l-2.512-2.198
				h-2.198l-23.857-5.024h-20.089l-4.709-14.753h21.66l9.731-2.512l4.709-5.336l10.358-11.615l14.441-5.024l34.215-37.041
				l5.024-4.393v-7.535l0.314-0.627l7.219-4.395l9.731,2.512v10.045l7.219,4.393v10.045l5.024,5.024l-7.533,4.707l-1.571,0.314
				l-2.196,0.629l-10.674,1.569h2.512v2.512l2.198,2.198l5.022,10.043v5.024h-0.314l-4.708,2.198h-7.535l-4.707-7.221v-12.241
				h-12.243l-12.243,7.533l-9.731,9.731v7.219l-5.022,7.219l0.314,0.943l4.707,21.346l12.243,16.95l11.929,2.512h0.314l7.219,7.533
				l12.243,2.198h0.314v9.731l2.198,14.755v2.51l2.51,4.709v7.533l4.709-2.51l2.512-2.198l9.731-19.776v-21.974l19.776-10.045h4.707
				l2.826-1.255h0.314l1.569-0.943h5.336l14.441-5.022l14.753,19.462l2.512,2.824l7.219,2.198h7.533l-2.51,9.731l-2.512,7.533
				l-5.022,9.731l-4.709,7.535l-1.883,2.198l-1.883,2.824l-8.476,11.929v23.229l16.638-22.286v-0.314l1.883-2.198v-0.314
				l33.588-44.574l5.022-6.593l1.569-2.198l0.943-1.255l11.929-16.01l1.569-1.883L1650.835,1719.07z M1486.347,1845.576l7.219-7.534
				h7.535l2.196,2.824l2.826,9.731l-10.045,5.024l-7.219,4.707l-5.024-4.707L1486.347,1845.576z M1393.117,1801.628v2.512h-2.198
				l-2.512,2.512h-2.512l-4.708-5.024l2.198-2.51v-4.709l2.51-2.512h5.024v4.709L1393.117,1801.628z M1383.386,1906.788
				l-2.198,7.533l-19.462,5.022l-7.535-5.022v-7.533l9.733-5.024h12.241L1383.386,1906.788z M1371.143,1857.818l-7.219,12.555
				l-19.776,4.709l2.51-12.243l10.045-7.219l-10.045-10.045l-4.708-16.95l-5.024-19.464v-7.533l7.221-5.022l12.555,5.022
				l2.512,12.243v9.731l-2.512,10.045L1371.143,1857.818z M1278.225,1850.597v-2.51h9.731l7.534-2.512h4.709l5.022-2.198
				l12.243,21.66h-12.243v-2.198l-2.51-2.512l-4.709-2.51l-7.534,2.51h-4.709l-5.022-2.51v-2.198h-5.024L1278.225,1850.597z
				 M1278.225,1906.788l4.709-2.198h5.022l2.512,2.198l-2.512,5.022h-2.198l-2.824,2.512h-4.709l-2.512-2.512L1278.225,1906.788z
				 M1169.3,2221.011l1.883-2.198h4.395l4.393,8.788l1.883,12.871l12.557,12.555l2.198,6.279l-2.198,6.279l-4.081,4.395
				l-6.279-1.884l-2.198-4.395l2.198-6.279v-6.279l-6.279-4.395l-8.474-12.869V2221.011z M1082.033,2370.117l14.755-6.593
				l8.474,6.593l8.476,21.346v29.507l-15.067-16.952l-12.557-14.753l-6.279-8.476L1082.033,2370.117z M1133.514,2557.205h-10.986
				l-8.79,8.476l-8.476-4.395l-10.672,2.198l-12.557-2.198l-6.591,2.198v6.593l2.51,8.474l-2.51,6.279h-8.162l-6.593-8.476
				l-4.395-10.672l6.278-10.674l6.593-14.753l-10.674-6.279l-8.474,6.279l-4.395-8.791l-6.279-14.753l10.674-12.871l10.672-1.883
				l1.883,21.345l15.381,8.162l8.162,19.15l10.674,2.196l10.672,4.395l1.883-2.198l4.395-2.198l16.95-16.95l4.395-12.557
				l12.557-12.869v20.405L1133.514,2557.205z M1403.162,1745.439l7.219,7.219l9.731-7.219h9.731l8.788-6.278l1.257-1.255
				l5.022,5.022l-0.941,2.826l-1.569,4.707h-7.535l-12.241,19.462l-2.512,21.974l-9.731-7.533l-7.219-4.709l-4.709-7.533
				l-7.534-4.708v2.51h-5.024l-4.708-2.51l-2.512-2.512v-7.219l9.731-10.045L1403.162,1745.439z M1535.317,1596.018l2.198-2.512
				l2.512,2.512h2.824l9.731,9.731l7.221,2.512l9.731,5.022v2.198l2.51,2.512v2.512l-7.219,14.753l-12.243,5.024l-7.534,7.219
				l-7.533-7.219l-2.198-17.266V1596.018z M1547.559,1715.931l-0.314,0.314l-4.395,2.198l-2.824-5.024l-4.709-5.022l2.198-2.198
				v-2.512l1.883-0.627l2.198-0.628h0.314l3.138-1.257h2.512l5.022,5.024v4.709l-2.51,5.022H1547.559z M1576.753,1677.007
				l-4.709,4.708l-12.241,5.024l-9.731-7.533l-2.512-2.198v-2.826l-10.045-2.51v-11.929l12.557-2.512l2.51,7.219l4.709,2.512h14.753
				l4.709,7.219V1677.007z M1058.49,2646.356l-14.753,2.198h-12.871l-2.198,2.196h-1.883v10.674l-7.533,9.103h43.319l4.709-9.103
				L1058.49,2646.356z"/>
		</g>
		<g>
			<path style="fill:#B12C5A;" d="M2044.163,1036.007l-138.435-299.784l-187.717-273.099l-46.458-96.684
				c-37.669,52.422-69.374,109.24-101.079,165.428c-1.569-37.041,11.3-73.139,25.112-107.356
				c7.221-16.636,14.44-34.529,11.616-52.422c-4.395,0.628-8.79,0.941-12.871,1.569c9.103-19.776,20.719-63.096,36.1-91.975
				l-57.446-119.599h-432.567l122.111,224.758l60.584,112.066l77.222,166.685l6.593,14.44h0.312l74.398,160.093l187.088,326.151
				l186.147,326.465l62.467,118.03l106.73,202.469l0.314,0.628l13.812-23.543l0.941-0.941v-0.628l2.826-4.081v-0.314
				l149.106-250.812l7.219-206.238L2044.163,1036.007z M1851.108,1140.537h2.512l2.512,2.512v5.022l-5.024,2.512h-2.512
				l-2.196-5.022L1851.108,1140.537z M1689.759,1037.89v-2.512h4.709l5.022,5.022v9.417l-7.533-4.393L1689.759,1037.89z
				 M1728.685,1084.348l2.51-7.533l5.024-2.198l2.198,2.198v10.045l-4.709,7.219L1728.685,1084.348z M1785.188,1150.582v-5.022
				l2.198-2.512h5.022l2.198,2.512v5.022l-4.709,2.198l-2.51-2.198H1785.188z M1802.139,1179.775l-2.198,5.024l-5.336-2.512v-7.534
				l2.512-4.709l5.022,4.709V1179.775z M1770.434,996.14l14.755-2.512l7.219-2.198l4.709,2.198l2.824,7.534l-10.045,4.709
				l-16.95,2.512l-9.731-7.221L1770.434,996.14z M1765.412,1064.886l5.022,4.708v2.512l-2.824,2.512l-7.221-2.512l-4.707-7.219
				H1765.412z M1721.464,898.2h7.221l7.534,7.533l2.198,9.731l-4.709,9.731v10.045l-14.753-10.045v-12.243l-2.512-4.707
				L1721.464,898.2z M1718.954,959.413l4.708-9.731h12.557l9.731,14.753l-5.024,17.265v2.198l2.512,2.512l2.512,9.731l-2.512,9.731
				h-5.022l-4.709-9.731l2.512-12.243l-12.557-9.731l-7.219-12.243L1718.954,959.413z M1694.468,778.287l7.533-5.024l7.221,10.045
				l4.708,12.243l-14.441-2.824l-7.533-7.221L1694.468,778.287z M1691.957,836.988l10.045-2.512l7.221,7.534l-2.512,2.512
				l-4.709,2.198l-5.022,5.336l-5.024,2.198l-5.022-7.534L1691.957,836.988z M1694.468,964.435l9.417,12.243h-16.95
				L1694.468,964.435z M1662.449,773.263l14.755,2.512l7.219,7.534l-2.198,7.221l-5.022,9.731l-2.198,7.533l-5.022-7.533
				l-7.535-7.534l-9.417-2.198l-2.824-9.731L1662.449,773.263z M1515.854,748.78l2.198-6.907l5.022-2.824l7.221,5.022l2.51,4.709
				l-2.51,5.022l-4.709,5.024l-5.022-2.512L1515.854,748.78z M1640.477,878.738h14.753l-7.219,7.219l-7.533,2.512V878.738z
				 M1638.279,944.658v5.024l-2.512,5.022h-5.022l-4.709-5.022h-2.512l-5.022-5.024v-7.219l5.022-2.198l4.709,2.198l7.533,5.022
				L1638.279,944.658z M1623.525,846.719l7.221,12.243l-10.045,10.045l-11.929-7.535l-2.512-9.417l-2.512-12.555L1623.525,846.719z
				 M1513.343,704.832h7.221l5.022,7.221h2.512l2.198,2.824l7.219,2.198l5.336,7.534l-2.824,2.198h-11.929l-7.533-7.219v-2.512
				l-7.221-5.022V704.832z M1370.829,558.237l2.826-2.826l7.533-4.707l-5.024-7.534v-9.417l5.024,4.707h2.198l9.731,7.219
				l5.336,7.535l14.44,14.753l2.51,4.709h2.512l9.417,2.51l7.533-5.022h10.045l-10.045,12.243l-14.753,2.51l-7.219,2.512
				l-5.024-2.512l-16.95-19.774l-9.731,5.022l-3.767,2.512L1370.829,558.237z M1419.17,664.652l5.964-4.081l7.533-7.219
				l12.243-4.709l-2.51,16.95l-9.733,16.952l-5.962-1.571L1419.17,664.652z M1681.911,1121.075l-11.927-5.022l-5.024-9.731
				l4.709-4.395l0.314-0.314l9.731,2.198l4.708,7.219l-2.198,10.045H1681.911z"/>
		</g>
		<g>
			<path style="fill:#1E3C90;" d="M1626.036,1679.205l6.279,10.986l0.941-1.255L1626.036,1679.205z M1626.036,1679.205l6.279,10.986
				l0.941-1.255L1626.036,1679.205z M1923.621,1591.937l-69.687-113.635l-159.152-337.452l-12.557-19.776h-0.314l-11.927-5.022
				l-5.024-9.731l4.709-4.395l-175.161-273.101l-0.314-0.628l-1.255-1.883l-66.234-145.34l-7.535-16.322l-41.748-91.975
				l-6.593-14.44l-32.646-71.57l-55.248-94.173l-134.354-230.41H679.288l109.241,207.179l46.458,88.522v-5.336h7.534l12.243,5.336
				h12.243l7.219-2.824l2.512,5.022v9.731l-9.731,5.024l2.512,10.043l4.707,6.907l17.265,2.512l14.755-2.512l12.243-2.198h14.753
				l-12.243,9.731H888.98l-14.755-5.022h-14.753l-5.024-0.628l166.685,295.701l0.314,0.943l136.237,263.996
				c15.067,3.767,30.448,7.221,45.515,10.988c-8.474,3.453-16.95,7.219-25.112,10.672c2.826,17.265,22.917,24.486,39.553,28.567
				c26.369,6.277,52.736,12.241,79.105,18.52c-22.917,11.929-49.912,11.3-75.653,10.359c-7.219-0.628-14.439-0.943-21.66-1.255
				l165.116,279.692l3.453,5.964l60.898,101.078l69.689,116.146v-2.198l0.314-0.627l7.219-4.395l9.731,2.512v10.045l7.219,4.393
				v10.045l5.024,5.024l-7.533,4.707l-1.571,0.314l-2.196,0.629l18.834,32.017l3.767,5.652l2.198-0.628h0.314l3.138-1.257h2.512
				l5.022,5.024v4.709l-2.51,5.022h-2.512l-0.314,0.314l10.674,17.893l1.569-0.943h5.336l14.441-5.022l14.753,19.462l2.512,2.824
				l7.219,2.198h7.533l-2.51,9.731l-2.512,7.533l-5.022,9.731l-4.709,7.535l-1.883,2.198l-1.883,2.824l4.708,7.219v0.314
				l3.454,5.024v0.314l2.198,4.393l0.627-5.336l7.533-9.731l5.024-5.022l2.198-5.024l7.533,14.755v2.51l2.198,2.512v21.974
				l14.753-7.534h2.512l7.534-2.198l11.929-2.512h12.243l5.022,2.512l-12.241,8.474l-5.024,3.769l-7.219,2.51h-4.709l-5.022,4.709
				l-7.533,5.022v2.512l-2.198,2.198l4.708,12.243l-5.336,10.045l-1.255,3.138l38.61,70.944l2.198,3.767l48.97,90.72l72.827,134.98
				l24.17-37.669l200.902-320.501l14.126-22.915l0.941-0.941v-0.628l2.826-4.081v-0.314L1923.621,1591.937z M1758.193,1515.343
				h-5.024l-7.219-2.512v-9.731l9.731-9.731l4.707,14.441L1758.193,1515.343z M1633.256,1517.541v9.731l-2.51,7.533v5.024
				l-4.709,4.707l-5.336,12.243l-2.198-14.753v-7.221l-2.198-2.51h4.395v-5.024l2.824-2.198l4.709-9.731v-10.045l7.533-9.731
				l9.731-12.241l-2.512,19.774L1633.256,1517.541z M1635.768,1620.504v4.707l-5.022,2.512l-4.709,5.022l-2.512-2.51h-5.022
				l5.022-9.731l9.731-2.512L1635.768,1620.504z M1535.317,1596.018l2.198-2.512l2.512,2.512h2.824l9.731,9.731l7.221,2.512
				l9.731,5.022v2.198l2.51,2.512v2.512l-7.219,14.753l-12.243,5.024l-7.534,7.219l-7.533-7.219l-2.198-17.266V1596.018z
				 M1569.533,1598.53l-9.731-2.512l-7.221-2.512l-2.51,5.024v2.198l-2.512-2.198v-2.512l-2.512-5.022l9.731-11.929l3.767-7.534
				l1.257-2.512l7.219-7.534l9.731,17.579l7.533,16.95l-7.533,2.512H1569.533z M1699.49,1498.079l2.512,36.727l-19.776-19.462
				l-14.753-17.265l-9.731-7.534l2.51-14.44l14.755-12.243l11.929,7.221L1699.49,1498.079z M1696.98,1456.643l5.022-2.824h1.883
				l2.826,5.022v2.512l-2.826,2.51h-1.883l-2.512-2.51L1696.98,1456.643z M1689.759,1370.632l2.198,7.533l-5.022,14.755
				l-16.95,12.241l9.731-21.972l4.708-12.557H1689.759z M1684.423,1341.439v-5.024l2.512-4.708l2.824-2.512l2.198,7.219l2.512,5.024
				l-4.709,4.708L1684.423,1341.439z M1672.494,1436.866l2.512,2.512v4.709l-2.512,2.51h-2.51l-5.024-2.51v-7.221l2.512-2.512
				L1672.494,1436.866z M1586.798,1554.268l5.022-14.438h4.709l2.512,4.707l-5.024,14.755l-9.731,9.731L1586.798,1554.268z
				 M1599.041,1586.287l2.198-5.022l5.022-2.198l2.512,7.219l-2.512,4.709l-2.512,7.534l-4.708,2.198l-2.512-7.221
				L1599.041,1586.287z M1599.041,1507.81l-5.024-2.512v-7.219l7.221-7.534l10.043,7.534l-2.51,12.243L1599.041,1507.81z
				 M1608.772,1461.352l9.731-9.731l12.243,2.198l2.51,7.533l-2.51,5.022l-12.243,4.709L1608.772,1461.352z M1655.23,1566.825
				l9.731-5.336l-2.512-16.952l10.045-9.731v14.755l-7.534,26.996l-19.462-2.512L1655.23,1566.825z M1667.473,1605.749l7.534-17.265
				l4.709-14.441l14.753,2.512v19.462l-17.265,24.486h-24.172L1667.473,1605.749z M1672.494,1664.45h2.512l4.709-9.731l2.51-2.512
				v-2.196h2.198v-2.512l19.462-14.755l15.069-5.022v16.95l-7.535,15.069h-2.196v2.51l-2.512,7.221l-4.709,9.731h-15.067
				l-11.929,2.51l-2.512-10.043V1664.45z M1716.442,1581.265l-2.512,14.753l-2.512,17.265l-2.196,2.198h-2.512l-4.709-29.193
				l-2.512-7.219l2.512-7.534l7.221-4.709h4.708l5.024,2.198v7.533L1716.442,1581.265z M1716.442,1527.272l-5.024-7.219v-7.221
				l7.535-12.241l7.219-5.024l2.512,12.243v7.533l-5.024,9.731L1716.442,1527.272z M1008.892,582.409h-2.51l-7.221-2.512v-7.219
				h7.221l2.51,7.219V582.409z M1021.134,562.946l-7.219-7.535l-9.731-4.707h-9.731v-7.534l7.219-2.198l7.219,2.198l14.755,2.51
				L1021.134,562.946z M1121.586,457.786h-5.022l-7.221-2.824l-2.51-4.709v-7.219l5.022-10.045l14.753,14.753L1121.586,457.786z
				 M1141.362,584.918l-2.512-2.51l2.512-14.44l4.709-17.265l9.731,19.462L1141.362,584.918z M1182.798,474.738l-12.243-7.221
				l2.198-2.51l5.022-2.512l7.535,5.022L1182.798,474.738z M1273.518,592.14l-5.024,2.824l-5.022-5.022l-2.512-5.024l-4.709-12.241
				l-2.51-4.709l-2.198-2.824v-2.198l-2.512-2.512h-5.022l-7.535-12.243l-4.393-2.512l-15.069-4.707l-9.731,4.707l-7.533-2.51
				l2.512-7.534l5.022-7.221v-4.707l5.024-2.198h2.198v4.707l7.534,7.535l10.045,1.883h9.417l2.512,2.824l2.198-2.824h12.555
				l-9.731-1.883l-7.533-5.338l2.512-4.707l14.753-2.198l12.243,12.243l-5.024,9.417v2.51l2.512,2.512l5.024,39.239V592.14z
				 M1361.726,682.545l-5.024-19.462l7.221-7.221l5.022-7.219v-2.512l-7.219-7.533h-5.024l-5.022,2.512v-2.512l-5.024-4.709
				l-2.51-7.534l-2.198-4.707h-2.512l4.709-4.709l7.533-5.022h12.243l-2.198,7.219l4.708,12.557l12.243,11.929l7.219,16.95
				l7.221,5.022h7.219l6.593,14.44l-6.279-4.709l-9.731-2.198l-9.731-5.022h-7.533l-2.512,5.022l2.512,7.221l-2.512,5.022
				L1361.726,682.545z M1576.753,1677.007l-4.709,4.708l-12.241,5.024l-9.731-7.533l-2.512-2.198v-2.826l-10.045-2.51v-11.929
				l12.557-2.512l2.51,7.219l4.709,2.512h14.753l4.709,7.219V1677.007z M1601.239,1686.738l-4.709,4.708h-2.512l-1.883-3.138
				l-7.848-14.126l2.512-21.974l5.022-9.417l-5.022-7.534l-5.024-2.512v-7.534l-2.51-2.198l5.022-2.51h5.024l4.707,2.51h5.024
				l2.198,2.198v5.024l-1.883,6.277l-0.314,0.943v7.219l-5.024,12.557l7.221,14.44V1686.738z M1606.26,1654.719l2.826-1.883
				l7.219-5.336l7.219-4.709h7.221l5.022-5.336l4.709,10.045l-7.221,19.462l14.755,14.753l5.022,21.974l0.943,0.943l8.474,6.279
				l32.019-7.221h2.512l14.439-12.243l2.512-4.708l7.533-19.776h2.198v-2.512l5.024-4.707l9.731-7.535l-2.198,14.755v4.709
				l-2.512,10.043v7.221l-2.512,5.022l-12.241,19.462l-7.535,12.557l-19.462-5.024l-12.241,9.731l-9.731-7.219h-12.243l-6.907-4.395
				l-5.336-3.138l-9.731,2.512l-2.512,9.731v9.731l-2.51,2.51l-2.512,5.024h-11.929v-7.533l-2.826-7.221v-14.753l10.045-12.243
				l7.848-12.243l0.943-1.255l0.941-1.255l-7.219-9.731l-12.557,5.022l-2.198-12.555L1606.26,1654.719z M1650.208,1752.658
				l-9.731,9.731l-7.221,5.024l3.14-9.731l5.022-6.593l1.569-0.628v-1.569l0.943-1.255h6.279V1752.658z M1626.036,1679.205
				l6.279,10.986l0.941-1.255L1626.036,1679.205z M1626.036,1679.205l6.279,10.986l0.941-1.255L1626.036,1679.205z"/>
		</g>
		<polygon style="fill:#D16A0F;" points="1586.557,1853.064 1584.234,1828.656 1584.234,1818.428 1597.251,1799.6 1599.342,1796.81 
			1603.759,1804.016 1603.062,1809.364 1601.202,1826.099 1596.553,1840.744 		"/>
		<polygon style="fill:#D16A0F;" points="1799.018,2171.521 1563.778,1889.327 1564.707,1889.791 1581.675,1889.791 
			1596.553,1884.91 1606.315,1879.795 1606.315,1877.704 1608.641,1877.704 1623.285,1865.151 1628.166,1872.59 1635.604,1872.59 
			1636.302,1870.962 1637.697,1867.94 		"/>
		<polygon style="fill:#4E9278;" points="1481.489,1779.609 1486.371,1787.048 1483.815,1787.048 1481.489,1789.372 
			1482.187,1791.465 1443.833,1745.671 1438.487,1739.163 1423.377,1721.031 1447.087,1725.913 1449.411,1725.913 
			1451.969,1728.237 1456.85,1728.237 1459.408,1730.563 1474.051,1750.32 1476.376,1754.97 1481.489,1760.084 1478.933,1760.084 
			1476.376,1774.727 		"/>
		<polygon style="fill:#4E9278;" points="1429.886,1703.83 1420.124,1706.156 1411.058,1706.156 1283.21,1552.97 1368.053,1417.684 
			1498.923,1632.236 1498.459,1632.7 1498.459,1640.139 1493.577,1644.788 1459.408,1681.747 1444.763,1686.629 1434.535,1698.484 
					"/>
		<polygon style="fill:#4E9278;" points="1508.454,1762.408 1508.454,1752.646 1495.901,1750.32 1488.695,1742.882 
			1476.376,1740.325 1464.288,1723.357 1459.639,1701.972 1459.408,1701.274 1464.288,1693.835 1464.288,1686.629 
			1474.051,1676.867 1486.371,1669.428 1498.459,1669.428 1498.459,1681.747 1503.34,1688.954 1510.778,1688.954 1515.66,1686.629 
			1515.66,1681.747 1510.778,1671.752 1508.454,1669.428 1508.454,1666.871 1505.898,1666.871 1516.822,1665.244 1518.915,1664.779 
			1541.695,1702.436 1550.062,1715.918 1560.523,1733.119 1559.594,1733.119 1557.734,1734.049 1554.712,1735.445 
			1550.062,1735.445 1530.305,1745.44 1530.305,1767.521 1520.541,1787.048 1517.984,1789.372 1513.104,1791.93 1513.104,1784.491 
			1510.778,1779.609 1510.778,1777.053 		"/>
		<polygon style="fill:#4E9278;" points="1552.388,1811.455 1569.589,1835.862 1569.589,1838.187 1567.031,1838.187 
			1550.062,1855.621 1542.624,1855.621 1537.511,1853.064 1535.185,1848.182 1540.067,1840.744 1532.629,1833.538 
			1524.261,1841.906 1508.918,1823.543 1523.099,1818.661 1525.423,1818.661 1527.979,1811.455 1532.629,1804.016 
			1537.511,1804.016 		"/>
		<polygon style="fill:#4E9278;" points="1602.829,1802.389 1600.737,1805.18 1584.234,1827.261 1584.234,1804.016 
			1592.601,1792.161 1594.693,1789.372 		"/>
	</g>
</g>
<g>
</g>
<g>
</g>
<g>
</g>
<g>
</g>
<g>
</g>
<g>
</g>
</svg>
