<?xml version="1.0" encoding="UTF-8"?>
<svg xmlns="http://www.w3.org/2000/svg" xmlns:xlink="http://www.w3.org/1999/xlink" width="2267.719971pt" height="2267.719971pt" viewBox="0 0 2267.719971 2267.719971" version="1.1">
<g id="surface1">
<path style=" stroke:none;fill-rule:nonzero;fill:rgb(8%,8%,8%);fill-opacity:1;" d="M 1822.992188 1034.488281 L 1294.226562 65.617188 L 426.5625 65.617188 L 462.386719 129.773438 L 1021.449219 1130.921875 L 992.707031 1178.230469 L 992.703125 1178.222656 L 370.527344 2202.390625 L 867.089844 2201.425781 L 1251.464844 2201.425781 L 1630.765625 1578.144531 L 1630.773438 1578.160156 L 1670.003906 1513.714844 L 1706.792969 1453.308594 L 1706.785156 1453.296875 L 1817.34375 1271.683594 C 1861.304688 1199.480469 1863.46875 1108.59375 1822.992188 1034.488281 Z M 1822.992188 1034.488281 "/>
<path style=" stroke:none;fill-rule:nonzero;fill:rgb(68%,68%,68%);fill-opacity:1;" d="M 1390.734375 1514.128906 L 1331.714844 1398.609375 L 1324.6875 1385.300781 L 1321.421875 1378.773438 L 1279.484375 1437.535156 L 1277.976562 1439.542969 L 1277.976562 1439.796875 L 1267.429688 1454.863281 L 1267.429688 1462.898438 L 1269.4375 1482.234375 L 1277.222656 1472.691406 L 1280.992188 1460.890625 L 1282.496094 1447.578125 L 1283 1443.3125 L 1289.023438 1435.527344 L 1293.042969 1431.507812 L 1294.800781 1427.488281 L 1300.828125 1439.292969 L 1300.828125 1441.300781 L 1302.585938 1443.3125 L 1302.585938 1460.890625 L 1314.390625 1454.863281 L 1316.398438 1454.863281 L 1322.425781 1453.105469 L 1331.96875 1451.09375 L 1341.765625 1451.09375 L 1345.78125 1453.105469 L 1335.988281 1459.882812 L 1331.96875 1462.898438 L 1326.195312 1464.90625 L 1322.425781 1464.90625 L 1318.410156 1468.675781 L 1312.382812 1472.691406 L 1312.382812 1474.703125 L 1310.625 1476.460938 L 1314.390625 1486.253906 L 1310.121094 1494.289062 L 1309.117188 1496.800781 L 1308.617188 1498.054688 L 1302.589844 1498.054688 L 1298.824219 1492.03125 L 1298.570312 1492.03125 L 1298.570312 1492.28125 L 1287.019531 1502.074219 L 1285.011719 1502.074219 L 1285.011719 1503.832031 L 1277.226562 1507.851562 L 1265.421875 1511.867188 L 1251.863281 1511.867188 L 1251.109375 1511.367188 L 1250.859375 1511.367188 L 1247.84375 1509.863281 L 1240.058594 1513.878906 L 1236.039062 1517.898438 L 1230.011719 1519.65625 L 1222.480469 1525.433594 L 1221.226562 1525.683594 L 1217.707031 1527.191406 L 1217.457031 1527.191406 L 1154.675781 1632.660156 L 1135.339844 1665.308594 L 1100.933594 1722.816406 L 969.847656 1929.996094 L 964.070312 1940.292969 L 958.796875 1950.335938 L 918.113281 2024.671875 L 906.8125 2045.765625 L 878.6875 2097.246094 L 868.894531 2115.074219 L 862.613281 2126.878906 L 857.339844 2136.421875 L 1221.226562 2136.421875 L 1246.585938 2088.707031 C 1238.554688 2080.421875 1230.769531 2073.390625 1225.492188 2070.375 C 1207.160156 2060.332031 1186.316406 2051.792969 1175.269531 2033.964844 C 1207.160156 2036.222656 1239.304688 2039.234375 1270.945312 2043.003906 L 1340.007812 1913.671875 L 1349.046875 1896.09375 L 1439.199219 1737.128906 L 1458.035156 1704.234375 L 1473.605469 1676.609375 Z M 1320.167969 1402.125 L 1312.382812 1409.910156 L 1306.605469 1413.929688 L 1309.117188 1406.144531 L 1313.132812 1400.871094 L 1314.390625 1400.367188 L 1314.390625 1399.113281 L 1315.144531 1398.109375 L 1320.167969 1398.109375 Z M 1121.023438 1944.8125 L 1117.757812 1954.855469 L 1119.515625 1960.132812 L 1116 1963.644531 L 1110.976562 1958.625 L 1105.953125 1949.832031 L 1102.4375 1939.789062 L 1104.195312 1934.765625 L 1109.21875 1933.007812 L 1116 1931.25 L 1122.78125 1934.765625 L 1126.042969 1939.789062 Z M 1179.035156 1920.957031 L 1172.253906 1920.957031 L 1168.738281 1914.175781 L 1172.253906 1910.660156 L 1177.277344 1910.660156 L 1180.789062 1912.417969 L 1184.054688 1917.691406 Z M 1231.769531 1960.132812 L 1223.230469 1968.667969 L 1224.988281 1975.703125 L 1218.210938 1978.964844 L 1214.695312 1973.691406 L 1218.210938 1968.667969 L 1218.210938 1965.15625 L 1219.964844 1956.613281 L 1226.746094 1953.351562 L 1230.011719 1953.351562 L 1231.769531 1954.859375 Z M 1238.550781 1904.128906 L 1231.769531 1900.613281 L 1221.472656 1899.109375 L 1212.933594 1900.613281 L 1221.472656 1887.054688 L 1236.792969 1888.8125 L 1238.550781 1890.570312 L 1242.066406 1897.351562 Z M 1243.570312 1790.117188 L 1242.066406 1791.625 L 1238.550781 1793.382812 L 1233.527344 1793.382812 L 1233.527344 1786.601562 L 1236.792969 1779.824219 L 1243.570312 1778.0625 L 1247.085938 1785.09375 Z M 1243.570312 1790.117188 "/>
<path style=" stroke:none;fill-rule:nonzero;fill:rgb(62%,62%,62%);fill-opacity:1;" d="M 1320.667969 1375.257812 L 1316.398438 1372.746094 L 1308.613281 1374.753906 L 1306.605469 1382.539062 L 1306.605469 1390.324219 L 1304.597656 1392.332031 L 1302.585938 1396.351562 L 1293.042969 1396.351562 L 1293.042969 1390.324219 L 1290.78125 1384.546875 L 1290.78125 1372.746094 L 1298.820312 1362.953125 L 1305.097656 1353.15625 L 1305.851562 1352.152344 L 1300.828125 1343.363281 L 1290.78125 1347.382812 L 1289.023438 1337.339844 L 1285.007812 1323.777344 L 1287.269531 1322.269531 L 1279.484375 1309.210938 L 1279.230469 1309.964844 L 1279.230469 1315.742188 L 1275.210938 1325.785156 L 1280.988281 1337.339844 L 1280.988281 1349.390625 L 1277.222656 1353.160156 L 1275.210938 1353.160156 L 1273.707031 1350.648438 L 1267.429688 1339.347656 L 1269.4375 1321.769531 L 1273.457031 1314.234375 L 1269.4375 1308.207031 L 1265.417969 1306.199219 L 1265.417969 1300.171875 L 1263.410156 1298.410156 L 1267.429688 1296.402344 L 1271.445312 1296.402344 L 1260.144531 1278.824219 L 1255.625 1278.824219 L 1247.839844 1276.816406 L 1242.066406 1274.804688 L 1240.058594 1278.824219 L 1240.058594 1280.582031 L 1238.046875 1278.824219 L 1238.046875 1276.816406 L 1236.039062 1272.796875 L 1243.824219 1263.253906 L 1246.835938 1257.226562 L 1172.253906 1137.941406 L 1132.324219 1074.15625 L 1094.402344 1134.175781 L 1026.597656 1242.410156 L 1007.007812 1273.550781 L 946.738281 1364.457031 L 944.226562 1367.972656 L 870.144531 1479.976562 L 810.128906 1596.5 C 826.953125 1621.863281 843.777344 1648.230469 868.386719 1666.816406 C 849.304688 1652.25 821.425781 1635.425781 800.835938 1614.578125 L 793.550781 1628.644531 L 776.222656 1661.792969 L 773.210938 1667.816406 L 756.132812 1700.464844 L 745.585938 1717.542969 L 631.574219 1898.351562 L 629.316406 1901.867188 L 624.042969 1910.15625 L 562.765625 2013.117188 L 554.980469 2026.425781 L 493.957031 2129.390625 L 489.691406 2136.421875 L 796.816406 2136.421875 L 785.515625 2129.136719 L 787.273438 2127.378906 L 787.273438 2125.621094 L 775.472656 2124.113281 L 773.714844 2110.554688 L 766.933594 2107.039062 L 758.394531 2105.53125 L 749.855469 2101.765625 L 739.808594 2112.0625 L 731.273438 2112.0625 L 715.953125 2127.378906 L 705.65625 2120.601562 L 715.953125 2112.0625 L 731.273438 2096.742188 L 739.808594 2096.742188 L 734.539062 2091.722656 L 732.777344 2084.6875 L 729.261719 2083.183594 L 727.503906 2083.183594 L 731.273438 2074.644531 L 736.296875 2067.863281 L 737.800781 2044.007812 L 751.613281 2023.664062 L 754.878906 2021.90625 L 758.394531 2018.640625 L 756.636719 2013.367188 L 758.394531 2008.34375 L 765.171875 2010.105469 L 766.933594 2016.632812 L 773.710938 2018.640625 L 775.472656 2023.664062 L 778.734375 2027.179688 L 775.472656 2030.445312 L 768.4375 2032.203125 L 763.414062 2038.734375 L 763.414062 2040.492188 L 765.175781 2044.007812 L 770.199219 2047.523438 L 773.714844 2056.0625 L 770.199219 2057.570312 L 766.933594 2061.082031 L 759.902344 2057.570312 L 758.394531 2050.789062 L 753.371094 2052.546875 L 749.855469 2054.304688 L 744.832031 2061.082031 L 743.074219 2069.625 L 744.832031 2074.644531 L 744.832031 2078.164062 L 753.371094 2091.722656 L 766.933594 2096.746094 L 773.714844 2096.746094 L 782.25 2098.503906 L 789.03125 2096.746094 L 792.296875 2101.765625 L 799.078125 2110.558594 L 805.855469 2117.085938 L 805.855469 2115.582031 L 807.613281 2112.066406 L 807.613281 2100.261719 L 800.835938 2086.449219 L 809.375 2076.40625 L 824.691406 2064.601562 L 838.253906 2071.382812 L 840.011719 2073.140625 L 850.054688 2073.140625 L 853.824219 2083.183594 L 853.824219 2094.988281 L 851.8125 2105.535156 L 858.84375 2122.109375 L 862.609375 2126.878906 L 857.335938 2136.421875 L 901.035156 2136.421875 L 901.535156 2135.671875 L 904.546875 2129.644531 L 1008.765625 1927.738281 L 1110.976562 1716.289062 L 1141.863281 1663.050781 L 1159.945312 1631.660156 L 1221.222656 1525.683594 L 1217.703125 1527.191406 L 1217.453125 1527.191406 L 1198.871094 1533.46875 L 1191.085938 1537.234375 L 1191.085938 1545.019531 L 1187.066406 1553.054688 L 1185.308594 1554.8125 L 1177.273438 1554.8125 L 1181.292969 1547.28125 L 1183.300781 1545.019531 L 1183.300781 1543.011719 L 1187.066406 1539.242188 L 1179.28125 1541.253906 L 1175.265625 1543.011719 L 1169.488281 1545.019531 L 1157.683594 1537.234375 L 1159.695312 1529.449219 L 1159.695312 1521.414062 L 1153.917969 1519.65625 L 1147.890625 1515.636719 L 1146.132812 1511.871094 L 1146.132812 1500.070312 L 1147.890625 1498.058594 L 1147.890625 1496.300781 L 1151.910156 1490.273438 L 1153.921875 1486.257812 L 1151.910156 1478.472656 L 1141.863281 1480.480469 L 1141.863281 1484.5 L 1140.105469 1488.265625 L 1126.292969 1488.265625 L 1124.535156 1482.488281 L 1120.519531 1478.472656 L 1124.535156 1474.703125 L 1126.292969 1470.4375 L 1126.292969 1468.675781 L 1136.089844 1462.902344 L 1149.902344 1462.902344 L 1165.46875 1454.867188 L 1169.488281 1472.695312 L 1159.695312 1492.03125 L 1157.6875 1498.058594 L 1157.6875 1503.835938 L 1159.695312 1503.835938 L 1161.703125 1505.84375 L 1167.480469 1507.855469 L 1181.292969 1519.65625 L 1181.292969 1527.441406 L 1185.3125 1525.433594 L 1191.085938 1523.675781 L 1191.085938 1519.65625 L 1192.84375 1515.636719 L 1200.878906 1503.832031 L 1202.636719 1498.058594 L 1208.664062 1488.265625 L 1214.441406 1480.480469 L 1214.441406 1478.472656 L 1225.992188 1466.917969 L 1232.019531 1472.695312 L 1228.253906 1478.472656 L 1230.011719 1482.488281 L 1234.027344 1484.5 L 1240.058594 1484.5 L 1253.617188 1470.433594 L 1255.625 1470.433594 L 1255.625 1468.675781 L 1242.066406 1449.089844 L 1241.816406 1449.089844 L 1230.011719 1443.3125 L 1226.242188 1443.3125 L 1222.476562 1449.089844 L 1220.46875 1454.863281 L 1218.457031 1454.863281 L 1207.160156 1458.882812 L 1206.90625 1458.882812 L 1191.085938 1451.097656 L 1185.8125 1433.265625 L 1185.3125 1431.511719 L 1187.066406 1429.75 L 1189.078125 1429.75 L 1185.3125 1423.722656 L 1181.292969 1419.707031 L 1183.300781 1408.152344 L 1185.3125 1408.152344 L 1181.292969 1403.882812 L 1179.28125 1400.367188 L 1167.480469 1384.546875 L 1165.46875 1382.539062 L 1161.453125 1382.539062 L 1159.441406 1380.78125 L 1157.683594 1380.78125 L 1138.597656 1376.761719 L 1122.527344 1376.761719 L 1118.761719 1364.960938 L 1136.089844 1364.960938 L 1143.875 1362.949219 L 1147.640625 1358.679688 L 1155.925781 1349.390625 L 1167.480469 1345.371094 L 1194.851562 1315.738281 L 1198.871094 1312.222656 L 1198.871094 1306.195312 L 1199.121094 1305.695312 L 1204.898438 1302.175781 L 1212.683594 1304.1875 L 1212.683594 1312.222656 L 1218.457031 1315.738281 L 1218.457031 1323.773438 L 1222.476562 1327.792969 L 1216.449219 1331.558594 L 1215.195312 1331.808594 L 1213.4375 1332.3125 L 1204.898438 1333.566406 L 1206.90625 1333.566406 L 1206.90625 1335.578125 L 1208.664062 1337.335938 L 1212.683594 1345.371094 L 1212.683594 1349.390625 L 1212.433594 1349.390625 L 1208.664062 1351.148438 L 1202.636719 1351.148438 L 1198.871094 1345.371094 L 1198.871094 1335.578125 L 1189.078125 1335.578125 L 1179.28125 1341.605469 L 1171.5 1349.390625 L 1171.5 1355.164062 L 1167.480469 1360.941406 L 1167.730469 1361.695312 L 1171.496094 1378.769531 L 1181.292969 1392.332031 L 1190.835938 1394.339844 L 1191.085938 1394.339844 L 1196.863281 1400.367188 L 1206.65625 1402.125 L 1206.90625 1402.125 L 1206.90625 1409.910156 L 1208.664062 1421.714844 L 1208.664062 1423.722656 L 1210.671875 1427.488281 L 1210.671875 1433.515625 L 1214.441406 1431.507812 L 1216.449219 1429.75 L 1224.234375 1413.929688 L 1224.234375 1396.347656 L 1240.054688 1388.3125 L 1243.820312 1388.3125 L 1246.082031 1387.308594 L 1246.332031 1387.308594 L 1247.589844 1386.554688 L 1251.859375 1386.554688 L 1263.410156 1382.539062 L 1275.210938 1398.105469 L 1277.222656 1400.367188 L 1282.996094 1402.125 L 1289.023438 1402.125 L 1287.015625 1409.910156 L 1285.007812 1415.9375 L 1280.988281 1423.722656 L 1277.222656 1429.75 L 1275.714844 1431.507812 L 1274.207031 1433.765625 L 1267.429688 1443.308594 L 1267.429688 1461.894531 L 1280.738281 1444.0625 L 1280.738281 1443.8125 L 1282.246094 1442.054688 L 1282.246094 1441.804688 L 1309.113281 1406.144531 L 1313.132812 1400.871094 L 1314.386719 1399.109375 L 1315.140625 1398.105469 L 1324.6875 1385.300781 L 1325.941406 1383.792969 Z M 1189.078125 1476.460938 L 1194.851562 1470.433594 L 1200.878906 1470.433594 L 1202.636719 1472.691406 L 1204.898438 1480.476562 L 1196.863281 1484.496094 L 1191.085938 1488.261719 L 1187.066406 1484.496094 Z M 1114.492188 1441.300781 L 1114.492188 1443.3125 L 1112.734375 1443.3125 L 1110.726562 1445.320312 L 1108.714844 1445.320312 L 1104.949219 1441.300781 L 1106.707031 1439.292969 L 1106.707031 1435.527344 L 1108.714844 1433.515625 L 1112.734375 1433.515625 L 1112.734375 1437.285156 Z M 1106.707031 1525.429688 L 1104.949219 1531.457031 L 1089.378906 1535.472656 L 1083.351562 1531.457031 L 1083.351562 1525.429688 L 1091.140625 1521.410156 L 1100.933594 1521.410156 Z M 1096.914062 1486.253906 L 1091.140625 1496.296875 L 1075.320312 1500.066406 L 1077.328125 1490.269531 L 1085.363281 1484.496094 L 1077.328125 1476.460938 L 1073.558594 1462.898438 L 1069.539062 1447.328125 L 1069.539062 1441.300781 L 1075.316406 1437.285156 L 1085.363281 1441.300781 L 1087.371094 1451.097656 L 1087.371094 1458.882812 L 1085.363281 1466.917969 Z M 1022.578125 1480.476562 L 1022.578125 1478.46875 L 1030.363281 1478.46875 L 1036.390625 1476.460938 L 1040.160156 1476.460938 L 1044.175781 1474.703125 L 1053.972656 1492.03125 L 1044.175781 1492.03125 L 1044.175781 1490.269531 L 1042.167969 1488.261719 L 1038.402344 1486.253906 L 1032.375 1488.261719 L 1028.605469 1488.261719 L 1024.589844 1486.253906 L 1024.589844 1484.496094 L 1020.570312 1484.496094 Z M 1022.578125 1525.429688 L 1026.347656 1523.671875 L 1030.363281 1523.671875 L 1032.375 1525.429688 L 1030.363281 1529.449219 L 1028.605469 1529.449219 L 1026.347656 1531.457031 L 1022.578125 1531.457031 L 1020.570312 1529.449219 Z M 935.441406 1776.808594 L 936.945312 1775.050781 L 940.460938 1775.050781 L 943.976562 1782.082031 L 945.484375 1792.378906 L 955.527344 1802.421875 L 957.289062 1807.445312 L 955.527344 1812.46875 L 952.265625 1815.984375 L 947.242188 1814.476562 L 945.480469 1810.960938 L 947.242188 1805.9375 L 947.242188 1800.914062 L 942.21875 1797.398438 L 935.4375 1787.101562 L 935.4375 1776.808594 Z M 865.625 1896.09375 L 877.429688 1890.820312 L 884.210938 1896.09375 L 890.992188 1913.171875 L 890.992188 1936.777344 L 878.9375 1923.214844 L 868.890625 1911.410156 L 863.867188 1904.632812 Z M 906.8125 2045.765625 L 898.023438 2045.765625 L 890.992188 2052.542969 L 884.210938 2049.027344 L 875.671875 2050.789062 L 865.625 2049.027344 L 860.355469 2050.789062 L 860.355469 2056.0625 L 862.363281 2062.839844 L 860.355469 2067.863281 L 853.824219 2067.863281 L 848.550781 2061.082031 L 845.035156 2052.546875 L 850.054688 2044.007812 L 855.332031 2032.203125 L 846.792969 2027.179688 L 840.011719 2032.203125 L 836.496094 2025.171875 L 831.472656 2013.367188 L 840.011719 2003.070312 L 848.550781 2001.566406 L 850.054688 2018.640625 L 862.359375 2025.171875 L 868.890625 2040.492188 L 877.429688 2042.246094 L 885.96875 2045.765625 L 887.472656 2044.003906 L 890.988281 2042.246094 L 904.550781 2028.6875 L 908.066406 2018.640625 L 918.109375 2008.347656 L 918.109375 2024.671875 Z M 1122.53125 1396.351562 L 1128.304688 1402.125 L 1136.089844 1396.351562 L 1143.875 1396.351562 L 1150.90625 1391.328125 L 1151.910156 1390.324219 L 1155.929688 1394.34375 L 1155.175781 1396.601562 L 1153.921875 1400.367188 L 1147.890625 1400.367188 L 1138.097656 1415.9375 L 1136.089844 1433.515625 L 1128.304688 1427.492188 L 1122.53125 1423.722656 L 1118.761719 1417.699219 L 1112.734375 1413.929688 L 1112.734375 1415.9375 L 1108.714844 1415.9375 L 1104.949219 1413.929688 L 1102.941406 1411.921875 L 1102.941406 1406.144531 L 1110.726562 1398.109375 Z M 1228.253906 1276.8125 L 1230.011719 1274.804688 L 1232.023438 1276.8125 L 1234.28125 1276.8125 L 1242.066406 1284.597656 L 1247.84375 1286.609375 L 1255.628906 1290.625 L 1255.628906 1292.382812 L 1257.636719 1294.394531 L 1257.636719 1296.402344 L 1251.859375 1308.207031 L 1242.066406 1312.226562 L 1236.039062 1318 L 1230.011719 1312.226562 L 1228.253906 1298.414062 Z M 1238.046875 1372.746094 L 1237.796875 1372.996094 L 1234.28125 1374.753906 L 1232.019531 1370.734375 L 1228.253906 1366.71875 L 1230.011719 1364.960938 L 1230.011719 1362.949219 L 1231.519531 1362.449219 L 1233.277344 1361.945312 L 1233.527344 1361.945312 L 1236.039062 1360.941406 L 1238.046875 1360.941406 L 1242.066406 1364.960938 L 1242.066406 1368.726562 L 1240.058594 1372.742188 L 1238.046875 1372.742188 Z M 1261.402344 1341.605469 L 1257.636719 1345.371094 L 1247.84375 1349.390625 L 1240.058594 1343.363281 L 1238.046875 1341.605469 L 1238.046875 1339.34375 L 1230.011719 1337.335938 L 1230.011719 1327.792969 L 1240.058594 1325.785156 L 1242.066406 1331.558594 L 1245.832031 1333.570312 L 1257.636719 1333.570312 L 1261.402344 1339.34375 Z M 846.792969 2117.085938 L 834.988281 2118.84375 L 824.691406 2118.84375 L 822.933594 2120.601562 L 821.429688 2120.601562 L 821.429688 2129.140625 L 815.402344 2136.421875 L 850.058594 2136.421875 L 853.824219 2129.140625 Z M 846.792969 2117.085938 "/>
<path style=" stroke:none;fill-rule:nonzero;fill:rgb(35%,35%,35%);fill-opacity:1;" d="M 1635.332031 828.804688 L 1524.582031 588.976562 L 1374.410156 370.5 L 1337.242188 293.152344 C 1307.105469 335.089844 1281.742188 380.542969 1256.378906 425.496094 C 1255.125 395.863281 1265.417969 366.984375 1276.46875 339.609375 C 1282.246094 326.300781 1288.019531 311.988281 1285.761719 297.671875 C 1282.246094 298.175781 1278.730469 298.425781 1275.464844 298.925781 C 1282.746094 283.105469 1292.039062 248.449219 1304.34375 225.347656 L 1258.386719 129.667969 L 912.335938 129.667969 L 1010.023438 309.472656 L 1058.492188 399.128906 L 1120.269531 532.476562 L 1125.542969 544.027344 L 1125.792969 544.027344 L 1185.308594 672.101562 L 1334.980469 933.023438 L 1483.898438 1194.195312 L 1533.871094 1288.617188 L 1619.257812 1450.59375 L 1619.507812 1451.097656 L 1630.558594 1432.261719 L 1631.308594 1431.507812 L 1631.308594 1431.007812 L 1633.570312 1427.742188 L 1633.570312 1427.492188 L 1752.855469 1226.839844 L 1758.628906 1061.851562 Z M 1480.886719 912.429688 L 1482.894531 912.429688 L 1484.90625 914.4375 L 1484.90625 918.457031 L 1480.886719 920.464844 L 1478.875 920.464844 L 1477.121094 916.449219 Z M 1351.808594 830.3125 L 1351.808594 828.300781 L 1355.574219 828.300781 L 1359.59375 832.320312 L 1359.59375 839.855469 L 1353.566406 836.339844 Z M 1382.949219 867.476562 L 1384.957031 861.453125 L 1388.976562 859.695312 L 1390.734375 861.453125 L 1390.734375 869.488281 L 1386.964844 875.261719 Z M 1428.148438 920.464844 L 1428.148438 916.449219 L 1429.910156 914.4375 L 1433.925781 914.4375 L 1435.683594 916.449219 L 1435.683594 920.464844 L 1431.917969 922.222656 L 1429.910156 920.464844 Z M 1441.710938 943.820312 L 1439.953125 947.839844 L 1435.683594 945.828125 L 1435.683594 939.800781 L 1437.695312 936.035156 L 1441.710938 939.800781 Z M 1416.347656 796.910156 L 1428.152344 794.902344 L 1433.925781 793.144531 L 1437.695312 794.902344 L 1439.953125 800.929688 L 1431.917969 804.695312 L 1418.355469 806.707031 L 1410.570312 800.929688 Z M 1412.328125 851.910156 L 1416.347656 855.675781 L 1416.347656 857.683594 L 1414.089844 859.695312 L 1408.3125 857.683594 L 1404.546875 851.910156 Z M 1377.171875 718.558594 L 1382.949219 718.558594 L 1388.976562 724.585938 L 1390.734375 732.371094 L 1386.964844 740.15625 L 1386.964844 748.191406 L 1375.164062 740.15625 L 1375.164062 730.363281 L 1373.15625 726.597656 Z M 1375.164062 767.53125 L 1378.929688 759.746094 L 1388.976562 759.746094 L 1396.761719 771.546875 L 1392.742188 785.359375 L 1392.742188 787.117188 L 1394.75 789.128906 L 1396.761719 796.914062 L 1394.75 804.699219 L 1390.734375 804.699219 L 1386.964844 796.914062 L 1388.976562 787.117188 L 1378.929688 779.332031 L 1373.15625 769.539062 Z M 1355.574219 622.628906 L 1361.601562 618.609375 L 1367.378906 626.644531 L 1371.144531 636.441406 L 1359.589844 634.179688 L 1353.566406 628.40625 Z M 1353.566406 669.589844 L 1361.601562 667.582031 L 1367.378906 673.609375 L 1365.367188 675.617188 L 1361.601562 677.375 L 1357.582031 681.644531 L 1353.566406 683.402344 L 1349.546875 677.375 Z M 1355.574219 771.546875 L 1363.109375 781.34375 L 1349.546875 781.34375 Z M 1329.960938 618.609375 L 1341.761719 620.621094 L 1347.539062 626.648438 L 1345.78125 632.425781 L 1341.761719 640.207031 L 1340.003906 646.234375 L 1335.988281 640.207031 L 1329.957031 634.179688 L 1322.425781 632.421875 L 1320.164062 624.636719 Z M 1212.683594 599.023438 L 1214.441406 593.5 L 1218.460938 591.238281 L 1224.234375 595.257812 L 1226.242188 599.023438 L 1224.234375 603.042969 L 1220.46875 607.0625 L 1216.449219 605.050781 Z M 1312.382812 702.992188 L 1324.183594 702.992188 L 1318.410156 708.765625 L 1312.382812 710.773438 Z M 1310.625 755.726562 L 1310.625 759.746094 L 1308.613281 763.761719 L 1304.597656 763.761719 L 1300.828125 759.746094 L 1298.820312 759.746094 L 1294.800781 755.726562 L 1294.800781 749.953125 L 1298.820312 748.191406 L 1302.585938 749.953125 L 1308.613281 753.96875 Z M 1298.820312 677.375 L 1304.597656 687.167969 L 1296.5625 695.207031 L 1287.015625 689.175781 L 1285.007812 681.644531 L 1283 671.601562 Z M 1210.675781 563.867188 L 1216.449219 563.867188 L 1220.46875 569.640625 L 1222.476562 569.640625 L 1224.238281 571.902344 L 1230.011719 573.660156 L 1234.28125 579.6875 L 1232.023438 581.445312 L 1222.476562 581.445312 L 1216.453125 575.671875 L 1216.453125 573.660156 L 1210.675781 569.644531 Z M 1096.664062 446.589844 L 1098.925781 444.328125 L 1104.949219 440.5625 L 1100.929688 434.535156 L 1100.929688 427.003906 L 1104.949219 430.769531 L 1106.707031 430.769531 L 1114.492188 436.542969 L 1118.761719 442.570312 L 1130.3125 454.375 L 1132.324219 458.140625 L 1134.332031 458.140625 L 1141.867188 460.148438 L 1147.890625 456.132812 L 1155.929688 456.132812 L 1147.890625 465.925781 L 1136.089844 467.933594 L 1130.3125 469.941406 L 1126.296875 467.933594 L 1112.734375 452.113281 L 1104.949219 456.132812 L 1101.9375 458.140625 Z M 1135.335938 531.722656 L 1140.105469 528.457031 L 1146.132812 522.679688 L 1155.929688 518.914062 L 1153.921875 532.472656 L 1146.132812 546.035156 L 1141.363281 544.777344 Z M 1345.527344 896.859375 L 1335.988281 892.84375 L 1331.96875 885.058594 L 1335.734375 881.542969 L 1335.988281 881.289062 L 1343.769531 883.046875 L 1347.539062 888.824219 L 1345.777344 896.859375 Z M 1345.527344 896.859375 "/>
<path style=" stroke:none;fill-rule:nonzero;fill:rgb(24%,24%,24%);fill-opacity:1;" d="M 1300.828125 1343.363281 L 1305.851562 1352.152344 L 1306.605469 1351.148438 Z M 1300.828125 1343.363281 L 1305.851562 1352.152344 L 1306.605469 1351.148438 Z M 1538.898438 1273.550781 L 1483.148438 1182.640625 L 1355.824219 912.679688 L 1345.78125 896.859375 L 1345.527344 896.859375 L 1335.988281 892.839844 L 1331.96875 885.058594 L 1335.734375 881.539062 L 1195.605469 663.058594 L 1195.355469 662.558594 L 1194.351562 661.050781 L 1141.363281 544.777344 L 1135.335938 531.722656 L 1101.9375 458.140625 L 1096.664062 446.589844 L 1070.546875 389.332031 L 1026.347656 313.996094 L 918.863281 129.667969 L 543.429688 129.667969 L 630.824219 295.410156 L 667.988281 366.226562 L 667.988281 361.960938 L 674.015625 361.960938 L 683.8125 366.226562 L 693.605469 366.226562 L 699.378906 363.96875 L 701.390625 367.988281 L 701.390625 375.769531 L 693.605469 379.789062 L 695.613281 387.824219 L 699.378906 393.351562 L 713.191406 395.359375 L 724.996094 393.351562 L 734.792969 391.59375 L 746.59375 391.59375 L 736.800781 399.375 L 711.183594 399.375 L 699.378906 395.359375 L 687.578125 395.359375 L 683.558594 394.855469 L 816.90625 631.417969 L 817.15625 632.171875 L 926.148438 843.367188 C 938.199219 846.382812 950.503906 849.144531 962.558594 852.160156 C 955.78125 854.921875 949 857.933594 942.46875 860.695312 C 944.730469 874.507812 960.804688 880.285156 974.113281 883.550781 C 995.207031 888.570312 1016.300781 893.34375 1037.394531 898.367188 C 1019.0625 907.910156 997.464844 907.40625 976.875 906.652344 C 971.097656 906.152344 965.324219 905.898438 959.546875 905.648438 L 1091.636719 1129.402344 L 1094.402344 1134.175781 L 1143.121094 1215.035156 L 1198.871094 1307.953125 L 1198.871094 1306.195312 L 1199.121094 1305.695312 L 1204.898438 1302.175781 L 1212.679688 1304.1875 L 1212.679688 1312.222656 L 1218.457031 1315.738281 L 1218.457031 1323.773438 L 1222.476562 1327.792969 L 1216.449219 1331.558594 L 1215.191406 1331.808594 L 1213.4375 1332.3125 L 1228.503906 1357.925781 L 1231.515625 1362.449219 L 1233.273438 1361.945312 L 1233.527344 1361.945312 L 1236.035156 1360.941406 L 1238.046875 1360.941406 L 1242.0625 1364.960938 L 1242.0625 1368.726562 L 1240.054688 1372.742188 L 1238.046875 1372.742188 L 1237.796875 1372.996094 L 1246.335938 1387.308594 L 1247.589844 1386.554688 L 1251.859375 1386.554688 L 1263.410156 1382.539062 L 1275.214844 1398.105469 L 1277.222656 1400.367188 L 1283 1402.125 L 1289.023438 1402.125 L 1287.015625 1409.910156 L 1285.007812 1415.9375 L 1280.988281 1423.722656 L 1277.222656 1429.75 L 1275.714844 1431.507812 L 1274.210938 1433.765625 L 1277.976562 1439.542969 L 1277.976562 1439.792969 L 1280.738281 1443.8125 L 1280.738281 1444.0625 L 1282.496094 1447.578125 L 1283 1443.308594 L 1289.027344 1435.523438 L 1293.042969 1431.507812 L 1294.804688 1427.488281 L 1300.828125 1439.292969 L 1300.828125 1441.300781 L 1302.589844 1443.308594 L 1302.589844 1460.886719 L 1314.390625 1454.859375 L 1316.398438 1454.859375 L 1322.425781 1453.101562 L 1331.96875 1451.09375 L 1341.765625 1451.09375 L 1345.78125 1453.101562 L 1335.988281 1459.882812 L 1331.96875 1462.898438 L 1326.195312 1464.90625 L 1322.429688 1464.90625 L 1318.410156 1468.671875 L 1312.382812 1472.691406 L 1312.382812 1474.699219 L 1310.625 1476.457031 L 1314.390625 1486.25 L 1310.125 1494.289062 L 1309.121094 1496.796875 L 1340.007812 1553.554688 L 1341.765625 1556.566406 L 1380.941406 1629.144531 L 1439.203125 1737.128906 L 1458.539062 1706.992188 L 1619.261719 1450.589844 L 1630.5625 1432.257812 L 1631.3125 1431.507812 L 1631.3125 1431.003906 L 1633.574219 1427.738281 L 1633.574219 1427.488281 Z M 1406.554688 1212.273438 L 1402.535156 1212.273438 L 1396.761719 1210.265625 L 1396.761719 1202.480469 L 1404.542969 1194.695312 L 1408.308594 1206.246094 Z M 1306.605469 1214.03125 L 1306.605469 1221.816406 L 1304.597656 1227.84375 L 1304.597656 1231.863281 L 1300.828125 1235.628906 L 1296.5625 1245.421875 L 1294.800781 1233.621094 L 1294.800781 1227.84375 L 1293.042969 1225.835938 L 1296.558594 1225.835938 L 1296.558594 1221.816406 L 1298.820312 1220.058594 L 1302.585938 1212.273438 L 1302.585938 1204.238281 L 1308.613281 1196.453125 L 1316.398438 1186.660156 L 1314.386719 1202.480469 Z M 1308.613281 1296.402344 L 1308.613281 1300.167969 L 1304.597656 1302.179688 L 1300.828125 1306.195312 L 1298.820312 1304.1875 L 1294.800781 1304.1875 L 1298.820312 1296.402344 L 1306.605469 1294.394531 Z M 1228.253906 1276.8125 L 1230.011719 1274.804688 L 1232.023438 1276.8125 L 1234.28125 1276.8125 L 1242.066406 1284.597656 L 1247.84375 1286.609375 L 1255.628906 1290.625 L 1255.628906 1292.382812 L 1257.636719 1294.394531 L 1257.636719 1296.402344 L 1251.859375 1308.207031 L 1242.066406 1312.226562 L 1236.039062 1318 L 1230.011719 1312.226562 L 1228.253906 1298.414062 Z M 1255.625 1278.824219 L 1247.839844 1276.8125 L 1242.066406 1274.804688 L 1240.058594 1278.824219 L 1240.058594 1280.582031 L 1238.046875 1278.824219 L 1238.046875 1276.8125 L 1236.039062 1272.796875 L 1243.824219 1263.253906 L 1246.835938 1257.226562 L 1247.839844 1255.214844 L 1253.617188 1249.191406 L 1261.402344 1263.253906 L 1267.429688 1276.8125 L 1261.402344 1278.824219 Z M 1359.59375 1198.464844 L 1361.601562 1227.84375 L 1345.78125 1212.273438 L 1333.976562 1198.464844 L 1326.195312 1192.4375 L 1328.203125 1180.882812 L 1340.003906 1171.089844 L 1349.546875 1176.867188 Z M 1357.582031 1165.3125 L 1361.601562 1163.054688 L 1363.109375 1163.054688 L 1365.367188 1167.074219 L 1365.367188 1169.082031 L 1363.109375 1171.089844 L 1361.601562 1171.089844 L 1359.59375 1169.082031 Z M 1351.808594 1096.503906 L 1353.566406 1102.53125 L 1349.546875 1114.335938 L 1335.988281 1124.128906 L 1343.773438 1106.550781 L 1347.539062 1096.503906 Z M 1347.539062 1073.152344 L 1347.539062 1069.132812 L 1349.546875 1065.367188 L 1351.808594 1063.355469 L 1353.566406 1069.132812 L 1355.574219 1073.148438 L 1351.808594 1076.917969 Z M 1337.996094 1149.492188 L 1340.003906 1151.503906 L 1340.003906 1155.269531 L 1337.996094 1157.277344 L 1335.988281 1157.277344 L 1331.96875 1155.269531 L 1331.96875 1149.492188 L 1333.976562 1147.484375 Z M 1269.4375 1243.414062 L 1273.457031 1231.863281 L 1277.222656 1231.863281 L 1279.234375 1235.628906 L 1275.214844 1247.433594 L 1267.429688 1255.21875 Z M 1279.234375 1269.03125 L 1280.992188 1265.011719 L 1285.007812 1263.253906 L 1287.019531 1269.027344 L 1285.007812 1272.796875 L 1283 1278.824219 L 1279.234375 1280.582031 L 1277.222656 1274.804688 Z M 1279.234375 1206.246094 L 1275.214844 1204.238281 L 1275.214844 1198.464844 L 1280.992188 1192.4375 L 1289.023438 1198.464844 L 1287.015625 1208.257812 Z M 1287.015625 1169.082031 L 1294.800781 1161.296875 L 1304.597656 1163.054688 L 1306.605469 1169.082031 L 1304.597656 1173.097656 L 1294.800781 1176.867188 Z M 1324.183594 1253.460938 L 1331.96875 1249.191406 L 1329.960938 1235.628906 L 1337.996094 1227.84375 L 1337.996094 1239.648438 L 1331.96875 1261.246094 L 1316.398438 1259.234375 Z M 1333.976562 1284.597656 L 1340.003906 1270.789062 L 1343.773438 1259.234375 L 1355.574219 1261.242188 L 1355.574219 1276.8125 L 1341.761719 1296.402344 L 1322.425781 1296.402344 Z M 1337.996094 1331.558594 L 1340.003906 1331.558594 L 1343.773438 1323.773438 L 1345.78125 1321.765625 L 1345.78125 1320.007812 L 1347.539062 1320.007812 L 1347.539062 1318 L 1363.109375 1306.195312 L 1375.164062 1302.175781 L 1375.164062 1315.738281 L 1369.136719 1327.792969 L 1367.378906 1327.792969 L 1367.378906 1329.800781 L 1365.367188 1335.578125 L 1361.601562 1343.363281 L 1349.546875 1343.363281 L 1340.003906 1345.371094 L 1337.996094 1337.335938 Z M 1373.152344 1265.011719 L 1371.144531 1276.8125 L 1369.132812 1290.625 L 1367.378906 1292.382812 L 1365.367188 1292.382812 L 1361.601562 1269.03125 L 1359.589844 1263.253906 L 1361.601562 1257.226562 L 1367.378906 1253.460938 L 1371.144531 1253.460938 L 1375.164062 1255.21875 L 1375.164062 1261.246094 Z M 1373.152344 1221.816406 L 1369.132812 1216.042969 L 1369.132812 1210.265625 L 1375.164062 1200.472656 L 1380.9375 1196.453125 L 1382.945312 1206.246094 L 1382.945312 1212.273438 L 1378.929688 1220.058594 Z M 807.113281 465.925781 L 805.105469 465.925781 L 799.328125 463.917969 L 799.328125 458.140625 L 805.105469 458.140625 L 807.113281 463.917969 Z M 816.90625 450.355469 L 811.132812 444.328125 L 803.347656 440.5625 L 795.5625 440.5625 L 795.5625 434.535156 L 801.335938 432.777344 L 807.113281 434.535156 L 818.917969 436.542969 Z M 897.269531 366.230469 L 893.25 366.230469 L 887.472656 363.96875 L 885.464844 360.203125 L 885.464844 354.425781 L 889.484375 346.390625 L 901.285156 358.195312 Z M 913.089844 467.933594 L 911.078125 465.925781 L 913.089844 454.375 L 916.855469 440.5625 L 924.640625 456.132812 Z M 946.238281 379.789062 L 936.445312 374.011719 L 938.203125 372.003906 L 942.21875 369.996094 L 948.246094 374.011719 Z M 1018.8125 473.710938 L 1014.796875 475.972656 L 1010.777344 471.953125 L 1008.769531 467.933594 L 1005 458.140625 L 1002.992188 454.375 L 1001.234375 452.113281 L 1001.234375 450.355469 L 999.226562 448.347656 L 995.207031 448.347656 L 989.179688 438.554688 L 985.664062 436.542969 L 973.609375 432.777344 L 965.824219 436.542969 L 959.796875 434.535156 L 961.808594 428.507812 L 965.824219 422.730469 L 965.824219 418.964844 L 969.84375 417.207031 L 971.601562 417.207031 L 971.601562 420.972656 L 977.628906 427 L 985.667969 428.507812 L 993.199219 428.507812 L 995.210938 430.765625 L 996.96875 428.507812 L 1007.011719 428.507812 L 999.226562 427 L 993.199219 422.730469 L 995.210938 418.964844 L 1007.011719 417.207031 L 1016.808594 427 L 1012.789062 434.535156 L 1012.789062 436.542969 L 1014.796875 438.550781 L 1018.816406 469.941406 L 1018.816406 473.710938 Z M 1089.378906 546.035156 L 1085.363281 530.464844 L 1091.136719 524.691406 L 1095.15625 518.914062 L 1095.15625 516.90625 L 1089.378906 510.878906 L 1085.363281 510.878906 L 1081.34375 512.886719 L 1081.34375 510.878906 L 1077.324219 507.109375 L 1075.316406 501.082031 L 1073.558594 497.320312 L 1071.546875 497.320312 L 1075.316406 493.550781 L 1081.34375 489.535156 L 1091.136719 489.535156 L 1089.378906 495.308594 L 1093.144531 505.355469 L 1102.9375 514.898438 L 1108.714844 528.457031 L 1114.492188 532.476562 L 1120.265625 532.476562 L 1125.539062 544.027344 L 1120.515625 540.261719 L 1112.734375 538.5 L 1104.949219 534.484375 L 1098.921875 534.484375 L 1096.910156 538.5 L 1098.921875 544.277344 L 1096.910156 548.296875 Z M 1261.402344 1341.605469 L 1257.636719 1345.371094 L 1247.84375 1349.390625 L 1240.058594 1343.363281 L 1238.046875 1341.605469 L 1238.046875 1339.34375 L 1230.011719 1337.335938 L 1230.011719 1327.792969 L 1240.058594 1325.785156 L 1242.066406 1331.558594 L 1245.832031 1333.570312 L 1257.636719 1333.570312 L 1261.402344 1339.34375 Z M 1280.992188 1349.390625 L 1277.222656 1353.15625 L 1275.214844 1353.15625 L 1273.707031 1350.644531 L 1267.429688 1339.34375 L 1269.4375 1321.765625 L 1273.457031 1314.234375 L 1269.4375 1308.207031 L 1265.421875 1306.195312 L 1265.421875 1300.167969 L 1263.410156 1298.410156 L 1267.429688 1296.402344 L 1271.449219 1296.402344 L 1275.214844 1298.410156 L 1279.234375 1298.410156 L 1280.992188 1300.167969 L 1280.992188 1304.1875 L 1279.484375 1309.210938 L 1279.234375 1309.964844 L 1279.234375 1315.738281 L 1275.214844 1325.785156 L 1280.992188 1337.335938 Z M 1285.007812 1323.773438 L 1287.269531 1322.269531 L 1293.042969 1318 L 1298.820312 1314.234375 L 1304.597656 1314.234375 L 1308.613281 1309.964844 L 1312.378906 1318 L 1306.605469 1333.570312 L 1318.40625 1345.371094 L 1322.425781 1362.949219 L 1323.179688 1363.707031 L 1329.960938 1368.730469 L 1355.574219 1362.953125 L 1357.582031 1362.953125 L 1369.136719 1353.15625 L 1371.144531 1349.390625 L 1377.171875 1333.570312 L 1378.929688 1333.570312 L 1378.929688 1331.5625 L 1382.949219 1327.796875 L 1390.734375 1321.765625 L 1388.976562 1333.570312 L 1388.976562 1337.339844 L 1386.964844 1345.371094 L 1386.964844 1351.148438 L 1384.957031 1355.167969 L 1375.164062 1370.738281 L 1369.136719 1380.78125 L 1353.566406 1376.761719 L 1343.773438 1384.546875 L 1335.988281 1378.773438 L 1326.195312 1378.773438 L 1320.667969 1375.257812 L 1316.398438 1372.746094 L 1308.613281 1374.757812 L 1306.605469 1382.539062 L 1306.605469 1390.324219 L 1304.597656 1392.332031 L 1302.585938 1396.351562 L 1293.042969 1396.351562 L 1293.042969 1390.328125 L 1290.78125 1384.550781 L 1290.78125 1372.746094 L 1298.820312 1362.953125 L 1305.097656 1353.160156 L 1305.851562 1352.15625 L 1306.605469 1351.148438 L 1300.828125 1343.367188 L 1290.785156 1347.382812 L 1289.027344 1337.339844 Z M 1320.167969 1402.125 L 1312.382812 1409.910156 L 1306.605469 1413.929688 L 1309.117188 1406.144531 L 1313.132812 1400.871094 L 1314.390625 1400.367188 L 1314.390625 1399.113281 L 1315.144531 1398.109375 L 1320.167969 1398.109375 Z M 1300.828125 1343.363281 L 1305.851562 1352.152344 L 1306.605469 1351.148438 Z M 1300.828125 1343.363281 L 1305.851562 1352.152344 L 1306.605469 1351.148438 Z M 1300.828125 1343.363281 "/>
<path style=" stroke:none;fill-rule:nonzero;fill:rgb(50%,50%,50%);fill-opacity:1;" d="M 1269.246094 1482.449219 L 1267.386719 1462.925781 L 1267.386719 1454.742188 L 1277.800781 1439.679688 L 1279.472656 1437.449219 L 1283.007812 1443.210938 L 1282.449219 1447.492188 L 1280.960938 1460.878906 L 1277.242188 1472.59375 Z M 1269.246094 1482.449219 "/>
<path style=" stroke:none;fill-rule:nonzero;fill:rgb(50%,50%,50%);fill-opacity:1;" d="M 1439.214844 1737.214844 L 1251.023438 1511.460938 L 1251.765625 1511.832031 L 1265.339844 1511.832031 L 1277.242188 1507.929688 L 1285.050781 1503.835938 L 1285.050781 1502.164062 L 1286.914062 1502.164062 L 1298.628906 1492.121094 L 1302.53125 1498.070312 L 1308.484375 1498.070312 L 1309.042969 1496.769531 L 1310.15625 1494.351562 Z M 1439.214844 1737.214844 "/>
<path style=" stroke:none;fill-rule:nonzero;fill:rgb(48%,48%,48%);fill-opacity:1;" d="M 1185.191406 1423.6875 L 1189.097656 1429.636719 L 1187.050781 1429.636719 L 1185.191406 1431.496094 L 1185.75 1433.171875 L 1155.066406 1396.535156 L 1150.789062 1391.332031 L 1138.703125 1376.824219 L 1157.667969 1380.730469 L 1159.527344 1380.730469 L 1161.574219 1382.589844 L 1165.480469 1382.589844 L 1167.527344 1384.449219 L 1179.242188 1400.257812 L 1181.101562 1403.976562 L 1185.191406 1408.066406 L 1183.144531 1408.066406 L 1181.101562 1419.78125 Z M 1185.191406 1423.6875 "/>
<path style=" stroke:none;fill-rule:nonzero;fill:rgb(48%,48%,48%);fill-opacity:1;" d="M 1143.910156 1363.0625 L 1136.097656 1364.925781 L 1128.847656 1364.925781 L 1026.566406 1242.375 L 1094.441406 1134.148438 L 1199.136719 1305.789062 L 1198.765625 1306.160156 L 1198.765625 1312.109375 L 1194.863281 1315.832031 L 1167.527344 1345.398438 L 1155.808594 1349.304688 L 1147.628906 1358.789062 Z M 1143.910156 1363.0625 "/>
<path style=" stroke:none;fill-rule:nonzero;fill:rgb(48%,48%,48%);fill-opacity:1;" d="M 1206.761719 1409.925781 L 1206.761719 1402.117188 L 1196.722656 1400.257812 L 1190.957031 1394.304688 L 1181.101562 1392.261719 L 1171.429688 1378.6875 L 1167.710938 1361.578125 L 1167.527344 1361.019531 L 1171.429688 1355.066406 L 1171.429688 1349.304688 L 1179.242188 1341.492188 L 1189.097656 1335.542969 L 1198.765625 1335.542969 L 1198.765625 1345.398438 L 1202.671875 1351.164062 L 1208.621094 1351.164062 L 1212.527344 1349.304688 L 1212.527344 1345.398438 L 1208.621094 1337.402344 L 1206.761719 1335.542969 L 1206.761719 1333.496094 L 1204.71875 1333.496094 L 1213.457031 1332.195312 L 1215.132812 1331.824219 L 1233.355469 1361.949219 L 1240.050781 1372.734375 L 1248.417969 1386.496094 L 1247.675781 1386.496094 L 1246.1875 1387.238281 L 1243.769531 1388.355469 L 1240.050781 1388.355469 L 1224.242188 1396.351562 L 1224.242188 1414.015625 L 1216.433594 1429.636719 L 1214.386719 1431.496094 L 1210.484375 1433.542969 L 1210.484375 1427.59375 L 1208.621094 1423.6875 L 1208.621094 1421.640625 Z M 1206.761719 1409.925781 "/>
<path style=" stroke:none;fill-rule:nonzero;fill:rgb(48%,48%,48%);fill-opacity:1;" d="M 1241.910156 1449.164062 L 1255.671875 1468.691406 L 1255.671875 1470.550781 L 1253.625 1470.550781 L 1240.050781 1484.496094 L 1234.097656 1484.496094 L 1230.007812 1482.449219 L 1228.148438 1478.546875 L 1232.054688 1472.59375 L 1226.101562 1466.832031 L 1219.410156 1473.523438 L 1207.132812 1458.835938 L 1218.480469 1454.929688 L 1220.339844 1454.929688 L 1222.382812 1449.164062 L 1226.101562 1443.210938 L 1230.007812 1443.210938 Z M 1241.910156 1449.164062 "/>
<path style=" stroke:none;fill-rule:nonzero;fill:rgb(48%,48%,48%);fill-opacity:1;" d="M 1282.261719 1441.910156 L 1280.589844 1444.144531 L 1267.386719 1461.808594 L 1267.386719 1443.210938 L 1274.082031 1433.730469 L 1275.753906 1431.496094 Z M 1282.261719 1441.910156 "/>
</g>
</svg>
