<?xml version="1.0" encoding="utf-8"?>
<!-- Generator: Adobe Illustrator 18.1.1, SVG Export Plug-In . SVG Version: 6.00 Build 0)  -->
<svg version="1.1" id="Mode_Isolation" xmlns="http://www.w3.org/2000/svg" xmlns:xlink="http://www.w3.org/1999/xlink" x="0px"
	 y="0px" viewBox="32.2 637.7 843.8 281.6" enable-background="new 32.2 637.7 843.8 281.6" xml:space="preserve">
<path fill="#F7AC55" d="M334.9,759.5h26.8c22.7,0,38.7,15.5,38.7,36.2l0,0c0,20.1-15.5,36.2-38.7,36.2h-26.8V759.5z M347.9,770.9v49
	h14.4c15,0,25.3-10.3,25.3-24.2l0,0c0-13.9-9.8-24.8-25.3-24.8H347.9L347.9,770.9z"/>
<g>
	<g>
		<polygon fill="#EF7A24" points="229.6,705.8 233.7,720.8 261.6,719.7 		"/>
		<polygon fill="#FCC261" points="205.3,723.4 233.7,720.8 229.6,705.8 		"/>
		<polygon fill="#EB611D" points="261.6,719.7 253.4,726.5 233.7,720.8 		"/>
		<polygon fill="#E73E11" points="252.3,743 262.1,732.1 253.4,726.5 233.7,720.8 		"/>
		<polygon fill="#EF7A24" points="205.3,723.4 252.3,743 217.7,752.7 		"/>
		<polygon fill="#CD0B10" points="233.7,720.8 205.3,723.4 252.3,743 		"/>
		<polygon fill="#E73E11" points="217.7,752.7 246.1,779.1 252.3,743 		"/>
		<polygon fill="#CD0B10" points="203.3,794 217.7,752.7 246.1,779.1 		"/>
		<polygon fill="#E73E11" points="203.3,794 204.8,826.7 246.1,779.1 		"/>
		<polygon fill="#EF7A24" points="203.3,794 204.8,826.7 172.8,838 		"/>
		<polygon fill="#FCC261" points="205.3,723.4 217.7,752.7 175.4,767.7 		"/>
		<polygon fill="#F9B036" points="205.3,723.4 143.4,662.5 175.4,767.7 		"/>
		<polygon fill="#EB611D" points="143.4,662.5 98.4,637.7 175.4,767.7 		"/>
		<polygon fill="#EF7A24" points="175.4,767.7 203.3,794 217.7,752.7 		"/>
		<polygon fill="#E73E11" points="163,779.6 175.4,767.7 203.3,794 		"/>
		<polygon fill="#CD0B10" points="137.7,814.3 163,779.6 203.3,794 		"/>
		<polygon fill="#E73E11" points="106.6,912.3 137.7,814.3 203.3,794 		"/>
		<polygon fill="#EF7A24" points="163,779.6 145.9,729.6 175.4,767.7 		"/>
		<polygon fill="#EB611D" points="87.1,727.5 145.9,729.6 163,779.6 		"/>
		<polygon fill="#F9B036" points="253.4,726.5 374.7,725.5 261.6,719.7 		"/>
		<polygon fill="#EB611D" points="262.1,732.1 253.4,726.5 374.7,725.5 		"/>
		<polygon fill="#E73E11" points="34.9,740.9 87.1,727.5 163,779.6 		"/>
	</g>
	<g>
		
			<polygon fill="none" stroke="#FCC261" stroke-width="0.236" stroke-linecap="round" stroke-linejoin="round" stroke-miterlimit="10" points="
			224.9,701.1 230.1,715.6 257.5,713.1 		"/>
		
			<polygon fill="none" stroke="#FCC261" stroke-width="0.236" stroke-linecap="round" stroke-linejoin="round" stroke-miterlimit="10" points="
			201.7,720.3 230.1,715.6 224.9,701.1 		"/>
		
			<polygon fill="none" stroke="#FCC261" stroke-width="0.236" stroke-linecap="round" stroke-linejoin="round" stroke-miterlimit="10" points="
			257.5,713.1 249.7,720.8 230.1,715.6 		"/>
		
			<polygon fill="none" stroke="#FCC261" stroke-width="0.236" stroke-linecap="round" stroke-linejoin="round" stroke-miterlimit="10" points="
			249.7,737.3 259,725.5 249.7,720.8 230.1,715.6 		"/>
		
			<polygon fill="none" stroke="#FCC261" stroke-width="0.236" stroke-linecap="round" stroke-linejoin="round" stroke-miterlimit="10" points="
			201.7,720.3 249.7,737.3 215.7,749.2 		"/>
		
			<polygon fill="none" stroke="#FCC261" stroke-width="0.236" stroke-linecap="round" stroke-linejoin="round" stroke-miterlimit="10" points="
			230.1,715.6 201.7,720.3 249.7,737.3 		"/>
		
			<polygon fill="none" stroke="#FCC261" stroke-width="0.236" stroke-linecap="round" stroke-linejoin="round" stroke-miterlimit="10" points="
			215.7,749.2 246.1,774.5 249.7,737.3 		"/>
		
			<polygon fill="none" stroke="#FCC261" stroke-width="0.236" stroke-linecap="round" stroke-linejoin="round" stroke-miterlimit="10" points="
			204.3,792.5 215.7,749.2 246.1,774.5 		"/>
		
			<polygon fill="none" stroke="#FCC261" stroke-width="0.236" stroke-linecap="round" stroke-linejoin="round" stroke-miterlimit="10" points="
			204.3,792.5 207.8,825.6 246.1,774.5 		"/>
		
			<polygon fill="none" stroke="#FCC261" stroke-width="0.236" stroke-linecap="round" stroke-linejoin="round" stroke-miterlimit="10" points="
			204.3,792.5 207.8,825.6 176.5,839.1 		"/>
		
			<polygon fill="none" stroke="#FCC261" stroke-width="0.236" stroke-linecap="round" stroke-linejoin="round" stroke-miterlimit="10" points="
			201.7,720.3 215.7,749.2 174.8,767.2 		"/>
		
			<polygon fill="none" stroke="#FCC261" stroke-width="0.236" stroke-linecap="round" stroke-linejoin="round" stroke-miterlimit="10" points="
			201.7,720.3 135.6,662.5 174.8,767.2 		"/>
		
			<polygon fill="none" stroke="#FCC261" stroke-width="0.236" stroke-linecap="round" stroke-linejoin="round" stroke-miterlimit="10" points="
			135.6,662.5 88.6,640.3 174.8,767.2 		"/>
		
			<polygon fill="none" stroke="#FCC261" stroke-width="0.236" stroke-linecap="round" stroke-linejoin="round" stroke-miterlimit="10" points="
			174.8,767.2 204.3,792.5 215.7,749.2 		"/>
		
			<polygon fill="none" stroke="#FCC261" stroke-width="0.236" stroke-linecap="round" stroke-linejoin="round" stroke-miterlimit="10" points="
			163,780.1 174.8,767.2 204.3,792.5 		"/>
		
			<polygon fill="none" stroke="#FCC261" stroke-width="0.236" stroke-linecap="round" stroke-linejoin="round" stroke-miterlimit="10" points="
			140.3,817.4 163,780.1 204.3,792.5 		"/>
		
			<polygon fill="none" stroke="#FCC261" stroke-width="0.236" stroke-linecap="round" stroke-linejoin="round" stroke-miterlimit="10" points="
			114.9,919.1 140.3,817.4 204.3,792.5 		"/>
		
			<polygon fill="none" stroke="#FCC261" stroke-width="0.236" stroke-linecap="round" stroke-linejoin="round" stroke-miterlimit="10" points="
			163,780.1 142.9,730.6 174.8,767.2 		"/>
		
			<polygon fill="none" stroke="#FCC261" stroke-width="0.236" stroke-linecap="round" stroke-linejoin="round" stroke-miterlimit="10" points="
			83.4,732.1 142.9,730.6 163,780.1 		"/>
		
			<polygon fill="none" stroke="#FCC261" stroke-width="0.236" stroke-linecap="round" stroke-linejoin="round" stroke-miterlimit="10" points="
			249.7,720.8 371.1,711.5 257.5,713.1 		"/>
		
			<polygon fill="none" stroke="#FCC261" stroke-width="0.236" stroke-linecap="round" stroke-linejoin="round" stroke-miterlimit="10" points="
			259,725.5 249.7,720.8 371.1,711.5 		"/>
		
			<polygon fill="none" stroke="#FCC261" stroke-width="0.236" stroke-linecap="round" stroke-linejoin="round" stroke-miterlimit="10" points="
			32.3,748.6 83.4,732.1 163,780.1 		"/>
	</g>
</g>
<path fill="#E74111" d="M277,759.5h12.9v72.2H277V759.5z"/>
<polygon fill="#EF7D24" points="290.1,759.5 277,831.8 277,759.5 "/>
<polygon fill="#E74111" points="334.9,759.5 334.9,831.8 347.9,831.8 "/>
<polygon fill="#F39348" points="347.9,770.9 334.9,759.5 347.9,831.8 "/>
<path fill="#EF7D00" d="M394.8,815.3l-46.9,16.5h14.4C376.2,831.8,388.2,825.1,394.8,815.3z"/>
<path fill="#D0380D" d="M400.6,795.8L400.6,795.8c0-7.3-2.1-13.9-5.6-19.7l-15,51.6C392.3,822,400.6,810.2,400.6,795.8z"/>
<path fill="#EF7D00" d="M361.8,759.5H335l63,22.7C392.7,768.3,379.4,759.5,361.8,759.5z"/>
<path fill="#FFFFFF" d="M441.8,759.5h53.7v11.4h-40.7v18.6h36.2V801h-36.2v19.7h41.3v11.4h-54.2L441.8,759.5L441.8,759.5z"/>
<path fill="#FFFFFF" d="M533.7,795.8L533.7,795.8c0-20.6,15.5-37.7,38.2-37.7c22.7,0,37.7,17.1,37.7,37.2l0,0
	c0,20.1-15.5,37.2-38.2,37.2C548.7,832.5,533.7,816.4,533.7,795.8z M595.6,795.8L595.6,795.8c0-14.4-10.3-25.9-24.8-25.9
	c-14.4,0-24.2,11.4-24.2,25.3l0,0c0,13.9,10.3,25.9,24.8,25.9C585.9,821.5,595.6,809.7,595.6,795.8z"/>
<path fill="#FFFFFF" d="M650.5,759.5h12.9v60.9h38.1v11.4h-50.6v-72.2L650.5,759.5L650.5,759.5z"/>
<path fill="#FFFFFF" d="M748,803.5l-28.9-43.9h15l20.1,32l20.6-32h14.4l-28.8,43.3v28.9h-12.9v-28.4L748,803.5L748,803.5z"/>
<path fill="#FFFFFF" d="M818.3,821.5l7.7-9.3c6.7,6.2,13.9,9.3,22.7,9.3c7.7,0,12.9-3.6,12.9-9.3l0,0c0-5.2-3.2-7.7-16.5-10.9
	c-15.5-3.6-24.2-8.3-24.2-21.7l0,0c0-12.4,10.3-21.2,24.8-21.2c10.3,0,19.1,3.2,26.3,9.3l-6.7,9.8c-6.7-4.7-12.9-7.3-19.7-7.3
	c-7.3,0-11.8,3.6-11.8,8.8l0,0c0,5.6,3.2,8.3,17.1,11.4c15.5,3.6,23.2,9.3,23.2,21.2l0,0c0,13.5-10.9,21.7-25.9,21.7
	C837.4,832.9,827.1,829.3,818.3,821.5z"/>
<g enable-background="new    ">
	<path fill="#FFFFFF" d="M275.7,871l1.3-1.5c1.9,1.7,3.7,2.6,6.3,2.6c2.5,0,4.1-1.3,4.1-3.1V869c0-1.7-0.9-2.7-4.8-3.5
		c-4.2-0.9-6.1-2.3-6.1-5.3v-0.1c0-2.9,2.5-5,6-5c2.7,0,4.6,0.8,6.4,2.2l-1.2,1.6c-1.7-1.4-3.4-2-5.3-2c-2.4,0-3.9,1.3-3.9,3v0.1
		c0,1.7,0.9,2.7,5,3.6c4.1,0.9,6,2.4,6,5.2v0.1c0,3.1-2.6,5.2-6.3,5.2C280.3,874,277.9,873,275.7,871z"/>
	<path fill="#FFFFFF" d="M293.5,864.6L293.5,864.6c0-5.1,3.8-9.5,9.4-9.5c5.6,0,9.3,4.4,9.3,9.4v0.1c0,5-3.8,9.5-9.4,9.5
		C297.3,874,293.5,869.7,293.5,864.6z M310.1,864.6L310.1,864.6c0-4.2-3-7.6-7.2-7.6s-7.2,3.3-7.2,7.5v0.1c0,4.2,3,7.6,7.2,7.6
		S310.1,868.8,310.1,864.6z"/>
	<path fill="#FFFFFF" d="M317.3,855.4h2.1v16.4h10.3v1.9h-12.4V855.4z"/>
	<path fill="#FFFFFF" d="M333.3,866.1v-10.6h2.1v10.5c0,3.9,2.1,6.2,5.6,6.2c3.4,0,5.5-2,5.5-6v-10.6h2.1v10.5
		c0,5.3-3.1,8.1-7.6,8.1C336.4,874,333.3,871.2,333.3,866.1z"/>
	<path fill="#FFFFFF" d="M359,857.3h-6.1v-1.9h14.4v1.9h-6.1v16.4H359V857.3z"/>
	<path fill="#FFFFFF" d="M372,855.4h2.1v18.3H372V855.4z"/>
	<path fill="#FFFFFF" d="M379.3,864.6L379.3,864.6c0-5.1,3.8-9.5,9.4-9.5c5.6,0,9.3,4.4,9.3,9.4v0.1c0,5-3.8,9.5-9.4,9.5
		C383,874,379.3,869.7,379.3,864.6z M395.8,864.6L395.8,864.6c0-4.2-3-7.6-7.2-7.6s-7.2,3.3-7.2,7.5v0.1c0,4.2,3,7.6,7.2,7.6
		S395.8,868.8,395.8,864.6z"/>
	<path fill="#FFFFFF" d="M403,855.4h1.9l11.5,14.7v-14.7h2v18.3h-1.6l-11.8-15v15h-2V855.4z"/>
	<path fill="#FFFFFF" d="M423.1,871l1.3-1.5c1.9,1.7,3.7,2.6,6.3,2.6c2.5,0,4.1-1.3,4.1-3.1V869c0-1.7-0.9-2.7-4.8-3.5
		c-4.2-0.9-6.1-2.3-6.1-5.3v-0.1c0-2.9,2.5-5,6-5c2.7,0,4.6,0.8,6.4,2.2l-1.2,1.6c-1.7-1.4-3.4-2-5.3-2c-2.4,0-3.9,1.3-3.9,3v0.1
		c0,1.7,0.9,2.7,5,3.6c4.1,0.9,6,2.4,6,5.2v0.1c0,3.1-2.6,5.2-6.3,5.2C427.7,874,425.3,873,423.1,871z"/>
	<path fill="#FFFFFF" d="M465.6,855.3h1.9l8.3,18.4h-2.2l-2.1-4.8h-10l-2.2,4.8h-2.1L465.6,855.3z M470.7,867l-4.2-9.3l-4.2,9.3
		H470.7z"/>
	<path fill="#FFFFFF" d="M480.2,855.4h1.9l11.5,14.7v-14.7h2v18.3H494l-11.8-15v15h-2V855.4z"/>
	<path fill="#FFFFFF" d="M501.5,855.4h6.4c5.8,0,9.7,3.9,9.7,9.1v0.1c0,5.2-4,9.2-9.7,9.2h-6.4V855.4z M503.6,857.3v14.5h4.3
		c4.6,0,7.6-3.1,7.6-7.2v-0.1c0-4.1-3-7.2-7.6-7.2H503.6z"/>
	<path fill="#FFFFFF" d="M539.7,855.4h6.4c5.8,0,9.7,3.9,9.7,9.1v0.1c0,5.2-4,9.2-9.7,9.2h-6.4V855.4z M541.8,857.3v14.5h4.3
		c4.6,0,7.6-3.1,7.6-7.2v-0.1c0-4.1-3-7.2-7.6-7.2H541.8z"/>
	<path fill="#FFFFFF" d="M561,855.4h2.1v18.3H561V855.4z"/>
	<path fill="#FFFFFF" d="M568.3,864.6L568.3,864.6c0-5.1,3.7-9.5,9.2-9.5c3.1,0,5,0.9,6.8,2.4l-1.3,1.6c-1.4-1.2-3-2.1-5.6-2.1
		c-4.1,0-7,3.4-7,7.5v0.1c0,4.4,2.8,7.6,7.2,7.6c2.1,0,4-0.8,5.3-1.8v-4.6h-5.6v-1.9h7.6v7.3c-1.7,1.5-4.3,2.8-7.3,2.8
		C571.9,874,568.3,869.8,568.3,864.6z"/>
	<path fill="#FFFFFF" d="M590.5,855.4h2.1v18.3h-2.1V855.4z"/>
	<path fill="#FFFFFF" d="M603.4,857.3h-6.1v-1.9h14.4v1.9h-6.1v16.4h-2.1V857.3z"/>
	<path fill="#FFFFFF" d="M620.7,855.3h1.9l8.3,18.4h-2.2l-2.1-4.8h-10l-2.2,4.8h-2.1L620.7,855.3z M625.8,867l-4.2-9.3l-4.2,9.3
		H625.8z"/>
	<path fill="#FFFFFF" d="M635.2,855.4h2.1v16.4h10.3v1.9h-12.4V855.4z"/>
	<path fill="#FFFFFF" d="M675.9,855.3h1.9l8.3,18.4H684l-2.1-4.8h-10l-2.2,4.8h-2.1L675.9,855.3z M681,867l-4.2-9.3l-4.2,9.3H681z"
		/>
	<path fill="#FFFFFF" d="M690.5,855.4h6.9c4.1,0,6.9,2.2,6.9,5.8v0.1c0,3.9-3.3,6-7.2,6h-4.4v6.5h-2.1V855.4z M697.1,865.4
		c3,0,5-1.6,5-4v-0.1c0-2.6-2-4-4.9-4h-4.6v8.1H697.1z"/>
	<path fill="#FFFFFF" d="M708.6,855.4h6.9c4.1,0,6.9,2.2,6.9,5.8v0.1c0,3.9-3.3,6-7.2,6h-4.4v6.5h-2.1V855.4z M715.2,865.4
		c3,0,5-1.6,5-4v-0.1c0-2.6-2-4-4.9-4h-4.6v8.1H715.2z"/>
	<path fill="#FFFFFF" d="M726.8,855.4h2.1v16.4h10.3v1.9h-12.4V855.4z"/>
	<path fill="#FFFFFF" d="M743.9,855.4h2.1v18.3h-2.1V855.4z"/>
	<path fill="#FFFFFF" d="M751.2,864.6L751.2,864.6c0-5.2,3.9-9.5,9.3-9.5c3.3,0,5.3,1.2,7.1,2.9l-1.4,1.5c-1.5-1.5-3.3-2.5-5.8-2.5
		c-4.1,0-7.1,3.3-7.1,7.5v0.1c0,4.2,3.1,7.6,7.1,7.6c2.5,0,4.2-1,5.9-2.6l1.4,1.3c-1.9,1.9-4,3.2-7.3,3.2
		C755.1,874,751.2,869.9,751.2,864.6z"/>
	<path fill="#FFFFFF" d="M778.7,855.3h1.9l8.3,18.4h-2.2l-2.1-4.8h-10l-2.2,4.8h-2.1L778.7,855.3z M783.8,867l-4.2-9.3l-4.2,9.3
		H783.8z"/>
	<path fill="#FFFFFF" d="M795.8,857.3h-6.1v-1.9H804v1.9h-6.1v16.4h-2.1V857.3z"/>
	<path fill="#FFFFFF" d="M808.8,855.4h2.1v18.3h-2.1V855.4z"/>
	<path fill="#FFFFFF" d="M816.1,864.6L816.1,864.6c0-5.1,3.8-9.5,9.4-9.5c5.6,0,9.3,4.4,9.3,9.4v0.1c0,5-3.8,9.5-9.4,9.5
		C819.8,874,816.1,869.7,816.1,864.6z M832.6,864.6L832.6,864.6c0-4.2-3-7.6-7.2-7.6s-7.2,3.3-7.2,7.5v0.1c0,4.2,3,7.6,7.2,7.6
		S832.6,868.8,832.6,864.6z"/>
	<path fill="#FFFFFF" d="M839.8,855.4h1.9l11.5,14.7v-14.7h2v18.3h-1.6l-11.8-15v15h-2V855.4z"/>
	<path fill="#FFFFFF" d="M859.9,871l1.3-1.5c1.9,1.7,3.7,2.6,6.3,2.6c2.5,0,4.1-1.3,4.1-3.1V869c0-1.7-0.9-2.7-4.8-3.5
		c-4.2-0.9-6.1-2.3-6.1-5.3v-0.1c0-2.9,2.5-5,6-5c2.7,0,4.6,0.8,6.4,2.2l-1.2,1.6c-1.7-1.4-3.4-2-5.3-2c-2.4,0-3.9,1.3-3.9,3v0.1
		c0,1.7,0.9,2.7,5,3.6c4.1,0.9,6,2.4,6,5.2v0.1c0,3.1-2.6,5.2-6.3,5.2C864.5,874,862.1,873,859.9,871z"/>
</g>
</svg>
